<svg width="919" height="368" viewBox="0 0 919 368" fill="none" xmlns="http://www.w3.org/2000/svg">
<path d="M755.47 41.8301H255.9C166.115 41.8301 93.33 114.615 93.33 204.4C93.33 294.185 166.115 366.97 255.9 366.97H755.47C845.255 366.97 918.04 294.185 918.04 204.4C918.04 114.615 845.255 41.8301 755.47 41.8301Z" stroke="black" stroke-miterlimit="10"/>
<path d="M405.949 175.112C405.949 170.991 408.293 168.257 411.809 168.257C415.324 168.257 417.668 170.991 417.668 175.112C417.668 179.019 415.324 181.616 411.809 181.616C408.293 181.616 405.949 179.019 405.949 175.112ZM416.145 175.112C416.145 171.675 414.543 169.644 411.809 169.644C409.055 169.644 407.473 171.675 407.473 175.112C407.473 178.335 409.055 180.21 411.809 180.21C414.543 180.21 416.145 178.335 416.145 175.112ZM421.047 177.397C421.047 179.429 422.063 180.288 423.625 180.288C425.168 180.288 426.34 179.136 426.34 177.515V171.46H427.805V181.46H426.34V179.839C425.617 181.011 424.367 181.694 423.195 181.694C421.086 181.694 419.563 180.269 419.563 177.69V171.46H421.047V177.397ZM429.914 171.46H431.399V172.964C432.063 171.87 433.156 171.265 434.211 171.265H434.66V172.808H434.231C432.629 172.808 431.399 173.882 431.399 175.405V181.46H429.914V171.46ZM440.012 171.46H441.613L443.742 179.663L446.242 171.46H447.922L450.344 179.663L452.59 171.46H454.192L451.125 181.46H449.524L447.082 173.198L444.582 181.46H442.942L440.012 171.46ZM455.168 176.421C455.168 173.237 456.984 171.265 459.836 171.265C462.551 171.265 464.504 173.354 464.504 176.226V176.831H456.692C456.828 179.097 457.942 180.308 459.953 180.308C461.594 180.308 462.59 179.526 462.824 178.296H464.387C463.938 180.425 462.473 181.616 459.953 181.616C457.024 181.616 455.168 179.624 455.168 176.421ZM459.836 172.534C458 172.534 456.926 173.589 456.731 175.64H462.922C462.766 173.745 461.555 172.534 459.836 172.534ZM466.418 167.456H467.902V173.315C468.606 172.007 469.817 171.226 471.34 171.226C473.977 171.226 475.734 173.296 475.734 176.421C475.734 179.565 473.977 181.655 471.34 181.655C469.817 181.655 468.606 180.874 467.902 179.546V181.46H466.418V167.456ZM474.211 176.421C474.211 173.999 473.059 172.593 471.067 172.593C469.055 172.593 467.902 173.999 467.902 176.421C467.902 178.862 469.055 180.288 471.067 180.288C473.059 180.288 474.211 178.862 474.211 176.421ZM482.336 177.202L480.715 176.987C478.664 176.733 477.551 175.894 477.551 174.194C477.551 172.378 479.035 171.265 481.477 171.265C483.801 171.265 485.344 172.476 485.539 174.468H484.074C483.84 173.12 483.02 172.495 481.457 172.495C479.992 172.495 479.016 173.14 479.016 174.116C479.016 175.073 479.66 175.464 480.93 175.62L482.57 175.815C484.758 176.069 485.793 177.026 485.793 178.823C485.793 180.542 484.25 181.636 481.926 181.636C479.289 181.636 477.688 180.366 477.453 178.452H478.996C479.231 179.8 480.168 180.405 481.926 180.405C483.371 180.405 484.328 179.8 484.328 178.843C484.328 177.905 483.684 177.358 482.336 177.202ZM487.551 168.413H489.309V170.054H487.551V168.413ZM487.688 171.46H489.172V181.46H487.688V171.46ZM496.008 180.132V181.46H495.109C493.859 181.46 492.707 180.776 492.707 178.901V172.749H490.871V171.46H492.707V168.862H494.172V171.46H496.008V172.749H494.172V178.706C494.172 179.839 494.621 180.132 495.227 180.132H496.008ZM497.258 176.421C497.258 173.237 499.074 171.265 501.926 171.265C504.641 171.265 506.594 173.354 506.594 176.226V176.831H498.781C498.918 179.097 500.031 180.308 502.043 180.308C503.684 180.308 504.68 179.526 504.914 178.296H506.477C506.027 180.425 504.563 181.616 502.043 181.616C499.113 181.616 497.258 179.624 497.258 176.421ZM501.926 172.534C500.09 172.534 499.016 173.589 498.82 175.64H505.012C504.856 173.745 503.645 172.534 501.926 172.534ZM521.613 167.456V181.46H520.149V179.526C519.426 180.854 518.215 181.655 516.692 181.655C514.055 181.655 512.297 179.565 512.297 176.421C512.297 173.296 514.055 171.226 516.692 171.226C518.215 171.226 519.426 172.007 520.149 173.335V167.456H521.613ZM513.82 176.421C513.82 178.862 514.992 180.288 516.984 180.288C518.996 180.288 520.149 178.862 520.149 176.421C520.149 173.999 518.996 172.593 516.984 172.593C514.992 172.593 513.82 173.999 513.82 176.421ZM523.527 176.421C523.527 173.237 525.344 171.265 528.195 171.265C530.91 171.265 532.863 173.354 532.863 176.226V176.831H525.051C525.188 179.097 526.301 180.308 528.313 180.308C529.953 180.308 530.949 179.526 531.184 178.296H532.746C532.297 180.425 530.832 181.616 528.313 181.616C525.383 181.616 523.527 179.624 523.527 176.421ZM528.195 172.534C526.359 172.534 525.285 173.589 525.09 175.64H531.281C531.125 173.745 529.914 172.534 528.195 172.534ZM543.899 167.456V181.46H542.434V179.526C541.711 180.854 540.5 181.655 538.977 181.655C536.34 181.655 534.582 179.565 534.582 176.421C534.582 173.296 536.34 171.226 538.977 171.226C540.5 171.226 541.711 172.007 542.434 173.335V167.456H543.899ZM536.106 176.421C536.106 178.862 537.277 180.288 539.27 180.288C541.281 180.288 542.434 178.862 542.434 176.421C542.434 173.999 541.281 172.593 539.27 172.593C537.277 172.593 536.106 173.999 536.106 176.421ZM545.871 168.413H547.629V170.054H545.871V168.413ZM546.008 171.46H547.492V181.46H546.008V171.46ZM549.387 176.421C549.387 173.296 551.262 171.226 554.074 171.226C556.594 171.226 558.41 172.788 558.606 175.171H557.082C557.004 173.569 555.832 172.593 554.074 172.593C552.063 172.593 550.91 173.999 550.91 176.421C550.91 178.862 552.082 180.288 554.074 180.288C555.813 180.288 556.984 179.39 557.082 177.886H558.606C558.371 180.19 556.574 181.655 554.074 181.655C551.281 181.655 549.387 179.565 549.387 176.421ZM568.645 174.819V181.46H567.16V179.683C566.418 180.894 565.129 181.675 563.606 181.675C561.672 181.675 560.305 180.444 560.305 178.687C560.305 177.065 561.359 176.069 563.176 175.952L565.988 175.737C566.848 175.698 567.16 175.405 567.16 174.741V174.702C567.16 173.452 566.067 172.495 564.641 172.495C562.981 172.495 562.082 173.198 561.926 174.624H560.383C560.52 172.573 562.18 171.245 564.621 171.245C566.945 171.245 568.645 172.769 568.645 174.819ZM561.809 178.647C561.809 179.702 562.668 180.386 564.035 180.386C565.832 180.386 567.16 179.019 567.16 177.183V176.87L563.684 177.104C562.434 177.202 561.809 177.71 561.809 178.647ZM575.266 180.132V181.46H574.367C573.117 181.46 571.965 180.776 571.965 178.901V172.749H570.129V171.46H571.965V168.862H573.43V171.46H575.266V172.749H573.43V178.706C573.43 179.839 573.879 180.132 574.484 180.132H575.266ZM576.516 176.421C576.516 173.237 578.332 171.265 581.184 171.265C583.899 171.265 585.852 173.354 585.852 176.226V176.831H578.039C578.176 179.097 579.289 180.308 581.301 180.308C582.942 180.308 583.938 179.526 584.172 178.296H585.734C585.285 180.425 583.82 181.616 581.301 181.616C578.371 181.616 576.516 179.624 576.516 176.421ZM581.184 172.534C579.348 172.534 578.274 173.589 578.078 175.64H584.27C584.113 173.745 582.902 172.534 581.184 172.534ZM596.887 167.456V181.46H595.422V179.526C594.699 180.854 593.488 181.655 591.965 181.655C589.328 181.655 587.57 179.565 587.57 176.421C587.57 173.296 589.328 171.226 591.965 171.226C593.488 171.226 594.699 172.007 595.422 173.335V167.456H596.887ZM589.094 176.421C589.094 178.862 590.266 180.288 592.258 180.288C594.27 180.288 595.422 178.862 595.422 176.421C595.422 173.999 594.27 172.593 592.258 172.593C590.266 172.593 589.094 173.999 589.094 176.421ZM607.727 180.132V181.46H606.828C605.578 181.46 604.426 180.776 604.426 178.901V172.749H602.59V171.46H604.426V168.862H605.891V171.46H607.727V172.749H605.891V178.706C605.891 179.839 606.34 180.132 606.945 180.132H607.727ZM608.977 176.421C608.977 173.296 610.871 171.226 613.684 171.226C616.477 171.226 618.352 173.296 618.352 176.421C618.352 179.565 616.477 181.655 613.684 181.655C610.871 181.655 608.977 179.565 608.977 176.421ZM616.828 176.421C616.828 173.999 615.676 172.593 613.684 172.593C611.672 172.593 610.5 173.999 610.5 176.421C610.5 178.862 611.672 180.288 613.684 180.288C615.676 180.288 616.828 178.862 616.828 176.421ZM628.996 180.132V181.46H628.098C626.848 181.46 625.695 180.776 625.695 178.901V172.749H623.859V171.46H625.695V168.862H627.16V171.46H628.996V172.749H627.16V178.706C627.16 179.839 627.609 180.132 628.215 180.132H628.996ZM637.649 175.405C637.649 173.452 636.594 172.632 634.953 172.632C633.371 172.632 632.18 173.726 632.18 175.269V181.46H630.695V167.456H632.18V173.003C632.902 171.87 634.192 171.226 635.383 171.226C637.551 171.226 639.113 172.593 639.113 175.093V181.46H637.649V175.405ZM641.008 176.421C641.008 173.237 642.824 171.265 645.676 171.265C648.391 171.265 650.344 173.354 650.344 176.226V176.831H642.531C642.668 179.097 643.781 180.308 645.793 180.308C647.434 180.308 648.43 179.526 648.664 178.296H650.227C649.777 180.425 648.313 181.616 645.793 181.616C642.863 181.616 641.008 179.624 641.008 176.421ZM645.676 172.534C643.84 172.534 642.766 173.589 642.57 175.64H648.762C648.606 173.745 647.395 172.534 645.676 172.534ZM665.363 167.456V181.46H663.899V179.526C663.176 180.854 661.965 181.655 660.442 181.655C657.805 181.655 656.047 179.565 656.047 176.421C656.047 173.296 657.805 171.226 660.442 171.226C661.965 171.226 663.176 172.007 663.899 173.335V167.456H665.363ZM657.57 176.421C657.57 178.862 658.742 180.288 660.734 180.288C662.746 180.288 663.899 178.862 663.899 176.421C663.899 173.999 662.746 172.593 660.734 172.593C658.742 172.593 657.57 173.999 657.57 176.421ZM667.277 176.421C667.277 173.237 669.094 171.265 671.945 171.265C674.66 171.265 676.613 173.354 676.613 176.226V176.831H668.801C668.938 179.097 670.051 180.308 672.063 180.308C673.703 180.308 674.699 179.526 674.934 178.296H676.496C676.047 180.425 674.582 181.616 672.063 181.616C669.133 181.616 667.277 179.624 667.277 176.421ZM671.945 172.534C670.109 172.534 669.035 173.589 668.84 175.64H675.031C674.875 173.745 673.664 172.534 671.945 172.534ZM678.527 167.456H680.012V181.46H678.527V167.456ZM681.965 168.413H683.723V170.054H681.965V168.413ZM682.102 171.46H683.586V181.46H682.102V171.46ZM694.797 171.46V181.675C694.797 183.882 693.039 185.366 690.383 185.366C687.766 185.366 685.949 184.077 685.637 182.104H687.18C687.336 183.315 688.508 184.038 690.344 184.038C692.219 184.038 693.332 183.14 693.332 181.577V179.233C692.609 180.522 691.379 181.284 689.856 181.284C687.238 181.284 685.481 179.272 685.481 176.245C685.481 173.237 687.238 171.245 689.856 171.245C691.379 171.245 692.609 171.987 693.332 173.276V171.46H694.797ZM687.004 176.245C687.004 178.569 688.176 179.917 690.168 179.917C692.18 179.917 693.332 178.569 693.332 176.245C693.332 173.94 692.18 172.593 690.168 172.593C688.176 172.593 687.004 173.94 687.004 176.245ZM703.859 175.405C703.859 173.452 702.805 172.632 701.164 172.632C699.582 172.632 698.391 173.726 698.391 175.269V181.46H696.906V167.456H698.391V173.003C699.113 171.87 700.402 171.226 701.594 171.226C703.762 171.226 705.324 172.593 705.324 175.093V181.46H703.859V175.405ZM711.906 180.132V181.46H711.008C709.758 181.46 708.606 180.776 708.606 178.901V172.749H706.77V171.46H708.606V168.862H710.07V171.46H711.906V172.749H710.07V178.706C710.07 179.839 710.52 180.132 711.125 180.132H711.906ZM713.215 172.749V171.46H714.797V170.015C714.797 168.14 716.086 167.456 717.453 167.456H718.352V168.745H717.57C716.809 168.745 716.262 169.019 716.262 170.132V171.46H718.352V172.749H716.262V181.46H714.797V172.749H713.215ZM721.535 177.397C721.535 179.429 722.551 180.288 724.113 180.288C725.656 180.288 726.828 179.136 726.828 177.515V171.46H728.293V181.46H726.828V179.839C726.106 181.011 724.856 181.694 723.684 181.694C721.574 181.694 720.051 180.269 720.051 177.69V171.46H721.535V177.397ZM730.402 167.456H731.887V181.46H730.402V167.456ZM737.57 171.46H739.172L741.301 179.663L743.801 171.46H745.481L747.902 179.663L750.149 171.46H751.75L748.684 181.46H747.082L744.641 173.198L742.141 181.46H740.5L737.57 171.46ZM752.727 176.421C752.727 173.296 754.621 171.226 757.434 171.226C760.227 171.226 762.102 173.296 762.102 176.421C762.102 179.565 760.227 181.655 757.434 181.655C754.621 181.655 752.727 179.565 752.727 176.421ZM760.578 176.421C760.578 173.999 759.426 172.593 757.434 172.593C755.422 172.593 754.25 173.999 754.25 176.421C754.25 178.862 755.422 180.288 757.434 180.288C759.426 180.288 760.578 178.862 760.578 176.421ZM764.016 171.46H765.5V172.964C766.164 171.87 767.258 171.265 768.313 171.265H768.762V172.808H768.332C766.731 172.808 765.5 173.882 765.5 175.405V181.46H764.016V171.46ZM770.52 167.456H772.004V181.46H770.52V167.456ZM783.215 167.456V181.46H781.75V179.526C781.027 180.854 779.817 181.655 778.293 181.655C775.656 181.655 773.899 179.565 773.899 176.421C773.899 173.296 775.656 171.226 778.293 171.226C779.817 171.226 781.027 172.007 781.75 173.335V167.456H783.215ZM775.422 176.421C775.422 178.862 776.594 180.288 778.586 180.288C780.598 180.288 781.75 178.862 781.75 176.421C781.75 173.999 780.598 172.593 778.586 172.593C776.594 172.593 775.422 173.999 775.422 176.421ZM789.113 176.421C789.113 173.296 791.008 171.226 793.82 171.226C796.613 171.226 798.488 173.296 798.488 176.421C798.488 179.565 796.613 181.655 793.82 181.655C791.008 181.655 789.113 179.565 789.113 176.421ZM796.965 176.421C796.965 173.999 795.813 172.593 793.82 172.593C791.809 172.593 790.637 173.999 790.637 176.421C790.637 178.862 791.809 180.288 793.82 180.288C795.813 180.288 796.965 178.862 796.965 176.421ZM799.465 172.749V171.46H801.047V170.015C801.047 168.14 802.336 167.456 803.703 167.456H804.602V168.745H803.82C803.059 168.745 802.512 169.019 802.512 170.132V171.46H804.602V172.749H802.512V181.46H801.047V172.749H799.465Z" fill="black"/>
<path d="M405.949 200.421C405.949 197.296 407.824 195.226 410.637 195.226C413.156 195.226 414.973 196.788 415.168 199.171H413.645C413.567 197.569 412.395 196.593 410.637 196.593C408.625 196.593 407.473 197.999 407.473 200.421C407.473 202.862 408.645 204.288 410.637 204.288C412.375 204.288 413.547 203.39 413.645 201.886H415.168C414.934 204.19 413.137 205.655 410.637 205.655C407.844 205.655 405.949 203.565 405.949 200.421ZM416.867 200.421C416.867 197.296 418.762 195.226 421.574 195.226C424.367 195.226 426.242 197.296 426.242 200.421C426.242 203.565 424.367 205.655 421.574 205.655C418.762 205.655 416.867 203.565 416.867 200.421ZM424.719 200.421C424.719 197.999 423.567 196.593 421.574 196.593C419.563 196.593 418.391 197.999 418.391 200.421C418.391 202.862 419.563 204.288 421.574 204.288C423.567 204.288 424.719 202.862 424.719 200.421ZM427.961 200.421C427.961 197.296 429.836 195.226 432.649 195.226C435.168 195.226 436.984 196.788 437.18 199.171H435.656C435.578 197.569 434.406 196.593 432.649 196.593C430.637 196.593 429.484 197.999 429.484 200.421C429.484 202.862 430.656 204.288 432.649 204.288C434.387 204.288 435.559 203.39 435.656 201.886H437.18C436.945 204.19 435.149 205.655 432.649 205.655C429.856 205.655 427.961 203.565 427.961 200.421ZM445.207 195.46H447.063L442.785 200.362L447.258 205.46H445.442L441.731 201.3L440.559 202.647V205.46H439.074V191.456H440.559V200.909L445.207 195.46ZM453.664 204.132V205.46H452.766C451.516 205.46 450.363 204.776 450.363 202.901V196.749H448.527V195.46H450.363V192.862H451.828V195.46H453.664V196.749H451.828V202.706C451.828 203.839 452.277 204.132 452.883 204.132H453.664ZM463.254 198.819V205.46H461.77V203.683C461.027 204.894 459.738 205.675 458.215 205.675C456.281 205.675 454.914 204.444 454.914 202.687C454.914 201.065 455.969 200.069 457.785 199.952L460.598 199.737C461.457 199.698 461.77 199.405 461.77 198.741V198.702C461.77 197.452 460.676 196.495 459.25 196.495C457.59 196.495 456.692 197.198 456.535 198.624H454.992C455.129 196.573 456.789 195.245 459.231 195.245C461.555 195.245 463.254 196.769 463.254 198.819ZM456.418 202.647C456.418 203.702 457.277 204.386 458.645 204.386C460.442 204.386 461.77 203.019 461.77 201.183V200.87L458.293 201.104C457.043 201.202 456.418 201.71 456.418 202.647ZM465.246 192.413H467.004V194.054H465.246V192.413ZM465.383 195.46H466.867V205.46H465.383V195.46ZM468.957 191.456H470.442V205.46H468.957V191.456ZM477.219 201.202L475.598 200.987C473.547 200.733 472.434 199.894 472.434 198.194C472.434 196.378 473.918 195.265 476.359 195.265C478.684 195.265 480.227 196.476 480.422 198.468H478.957C478.723 197.12 477.902 196.495 476.34 196.495C474.875 196.495 473.899 197.14 473.899 198.116C473.899 199.073 474.543 199.464 475.813 199.62L477.453 199.815C479.641 200.069 480.676 201.026 480.676 202.823C480.676 204.542 479.133 205.636 476.809 205.636C474.172 205.636 472.57 204.366 472.336 202.452H473.879C474.113 203.8 475.051 204.405 476.809 204.405C478.254 204.405 479.211 203.8 479.211 202.843C479.211 201.905 478.567 201.358 477.219 201.202ZM483.899 202.413H482.707L482.57 192.452H484.055L483.899 202.413ZM484.192 205.46H482.434V203.8H484.192V205.46ZM498.918 192.452V193.858H491.613V198.116H498.352V199.522H491.613V204.073H498.918V205.46H490.129V192.452H498.918ZM500.422 195.46H502.102L504.817 199.64L507.629 195.46H509.309L506.047 200.401L509.309 205.46H507.629L504.914 201.144L502.121 205.46H500.422L503.684 200.382L500.422 195.46ZM511.008 195.46H512.492V197.315C513.195 196.007 514.406 195.226 515.93 195.226C518.567 195.226 520.324 197.296 520.324 200.421C520.324 203.565 518.567 205.655 515.93 205.655C514.406 205.655 513.195 204.874 512.492 203.546V208.722H511.008V195.46ZM518.801 200.421C518.801 197.999 517.649 196.593 515.656 196.593C513.645 196.593 512.492 197.999 512.492 200.421C512.492 202.862 513.645 204.288 515.656 204.288C517.649 204.288 518.801 202.862 518.801 200.421ZM522.238 191.456H523.723V205.46H522.238V191.456ZM525.617 200.421C525.617 197.296 527.512 195.226 530.324 195.226C533.117 195.226 534.992 197.296 534.992 200.421C534.992 203.565 533.117 205.655 530.324 205.655C527.512 205.655 525.617 203.565 525.617 200.421ZM533.469 200.421C533.469 197.999 532.317 196.593 530.324 196.593C528.313 196.593 527.141 197.999 527.141 200.421C527.141 202.862 528.313 204.288 530.324 204.288C532.317 204.288 533.469 202.862 533.469 200.421ZM536.906 195.46H538.391V196.964C539.055 195.87 540.149 195.265 541.203 195.265H541.652V196.808H541.223C539.621 196.808 538.391 197.882 538.391 199.405V205.46H536.906V195.46ZM542.844 200.421C542.844 197.237 544.66 195.265 547.512 195.265C550.227 195.265 552.18 197.354 552.18 200.226V200.831H544.367C544.504 203.097 545.617 204.308 547.629 204.308C549.27 204.308 550.266 203.526 550.5 202.296H552.063C551.613 204.425 550.149 205.616 547.629 205.616C544.699 205.616 542.844 203.624 542.844 200.421ZM547.512 196.534C545.676 196.534 544.602 197.589 544.406 199.64H550.598C550.442 197.745 549.231 196.534 547.512 196.534ZM557.883 200.421C557.883 197.296 559.777 195.226 562.59 195.226C565.383 195.226 567.258 197.296 567.258 200.421C567.258 203.565 565.383 205.655 562.59 205.655C559.777 205.655 557.883 203.565 557.883 200.421ZM565.734 200.421C565.734 197.999 564.582 196.593 562.59 196.593C560.578 196.593 559.406 197.999 559.406 200.421C559.406 202.862 560.578 204.288 562.59 204.288C564.582 204.288 565.734 202.862 565.734 200.421ZM570.656 201.397C570.656 203.429 571.672 204.288 573.234 204.288C574.777 204.288 575.949 203.136 575.949 201.515V195.46H577.414V205.46H575.949V203.839C575.227 205.011 573.977 205.694 572.805 205.694C570.695 205.694 569.172 204.269 569.172 201.69V195.46H570.656V201.397ZM579.524 195.46H581.008V196.964C581.672 195.87 582.766 195.265 583.82 195.265H584.27V196.808H583.84C582.238 196.808 581.008 197.882 581.008 199.405V205.46H579.524V195.46ZM596.555 199.405C596.555 197.452 595.598 196.632 594.074 196.632C592.609 196.632 591.496 197.726 591.496 199.269V205.46H590.012V195.46H591.496V196.944C592.199 195.851 593.391 195.226 594.504 195.226C596.008 195.226 597.219 195.987 597.727 197.394C598.371 196.026 599.758 195.226 601.047 195.226C603.059 195.226 604.543 196.593 604.543 199.093V205.46H603.078V199.405C603.078 197.452 602.121 196.632 600.617 196.632C599.152 196.632 598.02 197.726 598.02 199.269V205.46H596.555V199.405ZM606.457 200.421C606.457 197.237 608.274 195.265 611.125 195.265C613.84 195.265 615.793 197.354 615.793 200.226V200.831H607.981C608.117 203.097 609.231 204.308 611.242 204.308C612.883 204.308 613.879 203.526 614.113 202.296H615.676C615.227 204.425 613.762 205.616 611.242 205.616C608.313 205.616 606.457 203.624 606.457 200.421ZM611.125 196.534C609.289 196.534 608.215 197.589 608.02 199.64H614.211C614.055 197.745 612.844 196.534 611.125 196.534ZM621.906 204.132V205.46H621.008C619.758 205.46 618.606 204.776 618.606 202.901V196.749H616.77V195.46H618.606V192.862H620.07V195.46H621.906V196.749H620.07V202.706C620.07 203.839 620.52 204.132 621.125 204.132H621.906ZM623.469 192.413H625.227V194.054H623.469V192.413ZM623.606 195.46H625.09V205.46H623.606V195.46ZM626.984 200.421C626.984 197.296 628.859 195.226 631.672 195.226C634.192 195.226 636.008 196.788 636.203 199.171H634.68C634.602 197.569 633.43 196.593 631.672 196.593C629.66 196.593 628.508 197.999 628.508 200.421C628.508 202.862 629.68 204.288 631.672 204.288C633.41 204.288 634.582 203.39 634.68 201.886H636.203C635.969 204.19 634.172 205.655 631.672 205.655C628.879 205.655 626.984 203.565 626.984 200.421ZM639.582 201.397C639.582 203.429 640.598 204.288 642.16 204.288C643.703 204.288 644.875 203.136 644.875 201.515V195.46H646.34V205.46H644.875V203.839C644.152 205.011 642.902 205.694 641.731 205.694C639.621 205.694 638.098 204.269 638.098 201.69V195.46H639.582V201.397ZM648.449 191.456H649.934V205.46H648.449V191.456ZM651.828 200.421C651.828 197.296 653.723 195.226 656.535 195.226C659.328 195.226 661.203 197.296 661.203 200.421C661.203 203.565 659.328 205.655 656.535 205.655C653.723 205.655 651.828 203.565 651.828 200.421ZM659.68 200.421C659.68 197.999 658.527 196.593 656.535 196.593C654.524 196.593 653.352 197.999 653.352 200.421C653.352 202.862 654.524 204.288 656.535 204.288C658.527 204.288 659.68 202.862 659.68 200.421ZM664.602 201.397C664.602 203.429 665.617 204.288 667.18 204.288C668.723 204.288 669.895 203.136 669.895 201.515V195.46H671.359V205.46H669.895V203.839C669.172 205.011 667.922 205.694 666.75 205.694C664.641 205.694 663.117 204.269 663.117 201.69V195.46H664.602V201.397ZM678.156 201.202L676.535 200.987C674.484 200.733 673.371 199.894 673.371 198.194C673.371 196.378 674.856 195.265 677.297 195.265C679.621 195.265 681.164 196.476 681.359 198.468H679.895C679.66 197.12 678.84 196.495 677.277 196.495C675.813 196.495 674.836 197.14 674.836 198.116C674.836 199.073 675.481 199.464 676.75 199.62L678.391 199.815C680.578 200.069 681.613 201.026 681.613 202.823C681.613 204.542 680.07 205.636 677.746 205.636C675.109 205.636 673.508 204.366 673.274 202.452H674.817C675.051 203.8 675.988 204.405 677.746 204.405C679.192 204.405 680.149 203.8 680.149 202.843C680.149 201.905 679.504 201.358 678.156 201.202ZM683.508 191.456H684.992V205.46H683.508V191.456ZM687.238 207.218H688.625C689.582 207.218 690.07 206.886 690.402 205.929L690.637 205.362L686.692 195.46H688.293L691.496 203.702L694.621 195.46H696.242L692.141 206.085C691.418 207.921 690.598 208.644 689.152 208.644H687.238V207.218ZM701.75 200.421C701.75 197.296 703.625 195.226 706.438 195.226C708.957 195.226 710.774 196.788 710.969 199.171H709.445C709.367 197.569 708.195 196.593 706.438 196.593C704.426 196.593 703.274 197.999 703.274 200.421C703.274 202.862 704.445 204.288 706.438 204.288C708.176 204.288 709.348 203.39 709.445 201.886H710.969C710.734 204.19 708.938 205.655 706.438 205.655C703.645 205.655 701.75 203.565 701.75 200.421ZM714.348 201.397C714.348 203.429 715.363 204.288 716.926 204.288C718.469 204.288 719.641 203.136 719.641 201.515V195.46H721.106V205.46H719.641V203.839C718.918 205.011 717.668 205.694 716.496 205.694C714.387 205.694 712.863 204.269 712.863 201.69V195.46H714.348V201.397ZM723.215 195.46H724.699V196.964C725.363 195.87 726.457 195.265 727.512 195.265H727.961V196.808H727.531C725.93 196.808 724.699 197.882 724.699 199.405V205.46H723.215V195.46ZM737.609 198.819V205.46H736.125V203.683C735.383 204.894 734.094 205.675 732.57 205.675C730.637 205.675 729.27 204.444 729.27 202.687C729.27 201.065 730.324 200.069 732.141 199.952L734.953 199.737C735.813 199.698 736.125 199.405 736.125 198.741V198.702C736.125 197.452 735.031 196.495 733.606 196.495C731.945 196.495 731.047 197.198 730.891 198.624H729.348C729.484 196.573 731.145 195.245 733.586 195.245C735.91 195.245 737.609 196.769 737.609 198.819ZM730.774 202.647C730.774 203.702 731.633 204.386 733 204.386C734.797 204.386 736.125 203.019 736.125 201.183V200.87L732.649 201.104C731.399 201.202 730.774 201.71 730.774 202.647ZM744.231 204.132V205.46H743.332C742.082 205.46 740.93 204.776 740.93 202.901V196.749H739.094V195.46H740.93V192.862H742.395V195.46H744.231V196.749H742.395V202.706C742.395 203.839 742.844 204.132 743.449 204.132H744.231ZM745.481 200.421C745.481 197.237 747.297 195.265 750.149 195.265C752.863 195.265 754.817 197.354 754.817 200.226V200.831H747.004C747.141 203.097 748.254 204.308 750.266 204.308C751.906 204.308 752.902 203.526 753.137 202.296H754.699C754.25 204.425 752.785 205.616 750.266 205.616C747.336 205.616 745.481 203.624 745.481 200.421ZM750.149 196.534C748.313 196.534 747.238 197.589 747.043 199.64H753.234C753.078 197.745 751.867 196.534 750.149 196.534ZM765.852 191.456V205.46H764.387V203.526C763.664 204.854 762.453 205.655 760.93 205.655C758.293 205.655 756.535 203.565 756.535 200.421C756.535 197.296 758.293 195.226 760.93 195.226C762.453 195.226 763.664 196.007 764.387 197.335V191.456H765.852ZM758.059 200.421C758.059 202.862 759.231 204.288 761.223 204.288C763.234 204.288 764.387 202.862 764.387 200.421C764.387 197.999 763.234 196.593 761.223 196.593C759.231 196.593 758.059 197.999 758.059 200.421ZM771.75 200.421C771.75 197.296 773.625 195.226 776.438 195.226C778.957 195.226 780.774 196.788 780.969 199.171H779.445C779.367 197.569 778.195 196.593 776.438 196.593C774.426 196.593 773.274 197.999 773.274 200.421C773.274 202.862 774.445 204.288 776.438 204.288C778.176 204.288 779.348 203.39 779.445 201.886H780.969C780.734 204.19 778.938 205.655 776.438 205.655C773.645 205.655 771.75 203.565 771.75 200.421ZM782.668 200.421C782.668 197.296 784.563 195.226 787.375 195.226C790.168 195.226 792.043 197.296 792.043 200.421C792.043 203.565 790.168 205.655 787.375 205.655C784.563 205.655 782.668 203.565 782.668 200.421ZM790.52 200.421C790.52 197.999 789.367 196.593 787.375 196.593C785.363 196.593 784.192 197.999 784.192 200.421C784.192 202.862 785.363 204.288 787.375 204.288C789.367 204.288 790.52 202.862 790.52 200.421ZM793.762 200.421C793.762 197.296 795.637 195.226 798.449 195.226C800.969 195.226 802.785 196.788 802.981 199.171H801.457C801.379 197.569 800.207 196.593 798.449 196.593C796.438 196.593 795.285 197.999 795.285 200.421C795.285 202.862 796.457 204.288 798.449 204.288C800.188 204.288 801.359 203.39 801.457 201.886H802.981C802.746 204.19 800.949 205.655 798.449 205.655C795.656 205.655 793.762 203.565 793.762 200.421ZM811.008 195.46H812.863L808.586 200.362L813.059 205.46H811.242L807.531 201.3L806.359 202.647V205.46H804.875V191.456H806.359V200.909L811.008 195.46ZM819.465 204.132V205.46H818.567C817.317 205.46 816.164 204.776 816.164 202.901V196.749H814.328V195.46H816.164V192.862H817.629V195.46H819.465V196.749H817.629V202.706C817.629 203.839 818.078 204.132 818.684 204.132H819.465ZM829.055 198.819V205.46H827.57V203.683C826.828 204.894 825.539 205.675 824.016 205.675C822.082 205.675 820.715 204.444 820.715 202.687C820.715 201.065 821.77 200.069 823.586 199.952L826.399 199.737C827.258 199.698 827.57 199.405 827.57 198.741V198.702C827.57 197.452 826.477 196.495 825.051 196.495C823.391 196.495 822.492 197.198 822.336 198.624H820.793C820.93 196.573 822.59 195.245 825.031 195.245C827.356 195.245 829.055 196.769 829.055 198.819ZM822.219 202.647C822.219 203.702 823.078 204.386 824.445 204.386C826.242 204.386 827.57 203.019 827.57 201.183V200.87L824.094 201.104C822.844 201.202 822.219 201.71 822.219 202.647ZM831.047 192.413H832.805V194.054H831.047V192.413ZM831.184 195.46H832.668V205.46H831.184V195.46ZM834.758 191.456H836.242V205.46H834.758V191.456Z" fill="black"/>
<path d="M412.688 223.405C412.688 221.452 411.731 220.632 410.207 220.632C408.742 220.632 407.629 221.726 407.629 223.269V229.46H406.145V219.46H407.629V220.944C408.332 219.851 409.524 219.226 410.637 219.226C412.141 219.226 413.352 219.987 413.859 221.394C414.504 220.026 415.891 219.226 417.18 219.226C419.192 219.226 420.676 220.593 420.676 223.093V229.46H419.211V223.405C419.211 221.452 418.254 220.632 416.75 220.632C415.285 220.632 414.152 221.726 414.152 223.269V229.46H412.688V223.405ZM422.59 224.421C422.59 221.237 424.406 219.265 427.258 219.265C429.973 219.265 431.926 221.354 431.926 224.226V224.831H424.113C424.25 227.097 425.363 228.308 427.375 228.308C429.016 228.308 430.012 227.526 430.246 226.296H431.809C431.359 228.425 429.895 229.616 427.375 229.616C424.445 229.616 422.59 227.624 422.59 224.421ZM427.258 220.534C425.422 220.534 424.348 221.589 424.152 223.64H430.344C430.188 221.745 428.977 220.534 427.258 220.534ZM440.793 223.405C440.793 221.452 439.738 220.632 438.117 220.632C436.535 220.632 435.324 221.726 435.324 223.269V229.46H433.84V219.46H435.324V221.003C436.067 219.87 437.336 219.226 438.547 219.226C440.695 219.226 442.258 220.593 442.258 223.093V229.46H440.793V223.405ZM445.832 225.397C445.832 227.429 446.848 228.288 448.41 228.288C449.953 228.288 451.125 227.136 451.125 225.515V219.46H452.59V229.46H451.125V227.839C450.402 229.011 449.152 229.694 447.981 229.694C445.871 229.694 444.348 228.269 444.348 225.69V219.46H445.832V225.397ZM454.563 227.624H456.32V229.46H454.563V227.624ZM462.16 216.452H463.625V224.479C463.625 226.823 464.914 228.19 467.121 228.19C469.289 228.19 470.539 226.823 470.539 224.479V216.452H472.024V224.479C472.024 227.565 470.051 229.616 467.121 229.616C464.152 229.616 462.16 227.565 462.16 224.479V216.452ZM480.969 223.405C480.969 221.452 479.914 220.632 478.293 220.632C476.711 220.632 475.5 221.726 475.5 223.269V229.46H474.016V219.46H475.5V221.003C476.242 219.87 477.512 219.226 478.723 219.226C480.871 219.226 482.434 220.593 482.434 223.093V229.46H480.969V223.405ZM484.328 224.421C484.328 221.296 486.203 219.226 489.016 219.226C491.535 219.226 493.352 220.788 493.547 223.171H492.024C491.945 221.569 490.774 220.593 489.016 220.593C487.004 220.593 485.852 221.999 485.852 224.421C485.852 226.862 487.024 228.288 489.016 228.288C490.754 228.288 491.926 227.39 492.024 225.886H493.547C493.313 228.19 491.516 229.655 489.016 229.655C486.223 229.655 484.328 227.565 484.328 224.421ZM495.246 224.421C495.246 221.296 497.141 219.226 499.953 219.226C502.746 219.226 504.621 221.296 504.621 224.421C504.621 227.565 502.746 229.655 499.953 229.655C497.141 229.655 495.246 227.565 495.246 224.421ZM503.098 224.421C503.098 221.999 501.945 220.593 499.953 220.593C497.942 220.593 496.77 221.999 496.77 224.421C496.77 226.862 497.942 228.288 499.953 228.288C501.945 228.288 503.098 226.862 503.098 224.421ZM505.598 219.46H507.199L510.363 227.8L513.469 219.46H515.09L511.184 229.46H509.504L505.598 219.46ZM516.067 224.421C516.067 221.237 517.883 219.265 520.734 219.265C523.449 219.265 525.402 221.354 525.402 224.226V224.831H517.59C517.727 227.097 518.84 228.308 520.852 228.308C522.492 228.308 523.488 227.526 523.723 226.296H525.285C524.836 228.425 523.371 229.616 520.852 229.616C517.922 229.616 516.067 227.624 516.067 224.421ZM520.734 220.534C518.899 220.534 517.824 221.589 517.629 223.64H523.82C523.664 221.745 522.453 220.534 520.734 220.534ZM527.317 219.46H528.801V220.964C529.465 219.87 530.559 219.265 531.613 219.265H532.063V220.808H531.633C530.031 220.808 528.801 221.882 528.801 223.405V229.46H527.317V219.46ZM542.551 228.132V229.46H541.652C540.402 229.46 539.25 228.776 539.25 226.901V220.749H537.414V219.46H539.25V216.862H540.715V219.46H542.551V220.749H540.715V226.706C540.715 227.839 541.164 228.132 541.77 228.132H542.551ZM551.203 223.405C551.203 221.452 550.149 220.632 548.508 220.632C546.926 220.632 545.734 221.726 545.734 223.269V229.46H544.25V215.456H545.734V221.003C546.457 219.87 547.746 219.226 548.938 219.226C551.106 219.226 552.668 220.593 552.668 223.093V229.46H551.203V223.405ZM554.563 224.421C554.563 221.237 556.379 219.265 559.231 219.265C561.945 219.265 563.899 221.354 563.899 224.226V224.831H556.086C556.223 227.097 557.336 228.308 559.348 228.308C560.988 228.308 561.984 227.526 562.219 226.296H563.781C563.332 228.425 561.867 229.616 559.348 229.616C556.418 229.616 554.563 227.624 554.563 224.421ZM559.231 220.534C557.395 220.534 556.32 221.589 556.125 223.64H562.317C562.16 221.745 560.949 220.534 559.231 220.534ZM578.918 215.456V229.46H577.453V227.526C576.731 228.854 575.52 229.655 573.996 229.655C571.359 229.655 569.602 227.565 569.602 224.421C569.602 221.296 571.359 219.226 573.996 219.226C575.52 219.226 576.731 220.007 577.453 221.335V215.456H578.918ZM571.125 224.421C571.125 226.862 572.297 228.288 574.289 228.288C576.301 228.288 577.453 226.862 577.453 224.421C577.453 221.999 576.301 220.593 574.289 220.593C572.297 220.593 571.125 221.999 571.125 224.421ZM580.891 216.413H582.649V218.054H580.891V216.413ZM581.027 219.46H582.512V229.46H581.027V219.46ZM584.211 219.46H585.813L588.977 227.8L592.082 219.46H593.703L589.797 229.46H588.117L584.211 219.46ZM594.68 224.421C594.68 221.237 596.496 219.265 599.348 219.265C602.063 219.265 604.016 221.354 604.016 224.226V224.831H596.203C596.34 227.097 597.453 228.308 599.465 228.308C601.106 228.308 602.102 227.526 602.336 226.296H603.899C603.449 228.425 601.984 229.616 599.465 229.616C596.535 229.616 594.68 227.624 594.68 224.421ZM599.348 220.534C597.512 220.534 596.438 221.589 596.242 223.64H602.434C602.277 221.745 601.067 220.534 599.348 220.534ZM605.93 219.46H607.414V220.964C608.078 219.87 609.172 219.265 610.227 219.265H610.676V220.808H610.246C608.645 220.808 607.414 221.882 607.414 223.405V229.46H605.93V219.46ZM616.867 225.202L615.246 224.987C613.195 224.733 612.082 223.894 612.082 222.194C612.082 220.378 613.567 219.265 616.008 219.265C618.332 219.265 619.875 220.476 620.07 222.468H618.606C618.371 221.12 617.551 220.495 615.988 220.495C614.524 220.495 613.547 221.14 613.547 222.116C613.547 223.073 614.192 223.464 615.461 223.62L617.102 223.815C619.289 224.069 620.324 225.026 620.324 226.823C620.324 228.542 618.781 229.636 616.457 229.636C613.82 229.636 612.219 228.366 611.984 226.452H613.527C613.762 227.8 614.699 228.405 616.457 228.405C617.902 228.405 618.859 227.8 618.859 226.843C618.859 225.905 618.215 225.358 616.867 225.202ZM622.024 224.421C622.024 221.237 623.84 219.265 626.692 219.265C629.406 219.265 631.359 221.354 631.359 224.226V224.831H623.547C623.684 227.097 624.797 228.308 626.809 228.308C628.449 228.308 629.445 227.526 629.68 226.296H631.242C630.793 228.425 629.328 229.616 626.809 229.616C623.879 229.616 622.024 227.624 622.024 224.421ZM626.692 220.534C624.856 220.534 623.781 221.589 623.586 223.64H629.777C629.621 221.745 628.41 220.534 626.692 220.534ZM645.402 222.819V229.46H643.918V227.683C643.176 228.894 641.887 229.675 640.363 229.675C638.43 229.675 637.063 228.444 637.063 226.687C637.063 225.065 638.117 224.069 639.934 223.952L642.746 223.737C643.606 223.698 643.918 223.405 643.918 222.741V222.702C643.918 221.452 642.824 220.495 641.399 220.495C639.738 220.495 638.84 221.198 638.684 222.624H637.141C637.277 220.573 638.938 219.245 641.379 219.245C643.703 219.245 645.402 220.769 645.402 222.819ZM638.567 226.647C638.567 227.702 639.426 228.386 640.793 228.386C642.59 228.386 643.918 227.019 643.918 225.183V224.87L640.442 225.104C639.192 225.202 638.567 225.71 638.567 226.647ZM647.531 219.46H649.016V220.964C649.68 219.87 650.774 219.265 651.828 219.265H652.277V220.808H651.848C650.246 220.808 649.016 221.882 649.016 223.405V229.46H647.531V219.46ZM654.035 219.46H655.52V220.964C656.184 219.87 657.277 219.265 658.332 219.265H658.781V220.808H658.352C656.75 220.808 655.52 221.882 655.52 223.405V229.46H654.035V219.46ZM668.43 222.819V229.46H666.945V227.683C666.203 228.894 664.914 229.675 663.391 229.675C661.457 229.675 660.09 228.444 660.09 226.687C660.09 225.065 661.145 224.069 662.961 223.952L665.774 223.737C666.633 223.698 666.945 223.405 666.945 222.741V222.702C666.945 221.452 665.852 220.495 664.426 220.495C662.766 220.495 661.867 221.198 661.711 222.624H660.168C660.305 220.573 661.965 219.245 664.406 219.245C666.731 219.245 668.43 220.769 668.43 222.819ZM661.594 226.647C661.594 227.702 662.453 228.386 663.82 228.386C665.617 228.386 666.945 227.019 666.945 225.183V224.87L663.469 225.104C662.219 225.202 661.594 225.71 661.594 226.647ZM670.168 231.218H671.555C672.512 231.218 673 230.886 673.332 229.929L673.567 229.362L669.621 219.46H671.223L674.426 227.702L677.551 219.46H679.172L675.07 230.085C674.348 231.921 673.527 232.644 672.082 232.644H670.168V231.218ZM684.68 224.421C684.68 221.296 686.574 219.226 689.387 219.226C692.18 219.226 694.055 221.296 694.055 224.421C694.055 227.565 692.18 229.655 689.387 229.655C686.574 229.655 684.68 227.565 684.68 224.421ZM692.531 224.421C692.531 221.999 691.379 220.593 689.387 220.593C687.375 220.593 686.203 221.999 686.203 224.421C686.203 226.862 687.375 228.288 689.387 228.288C691.379 228.288 692.531 226.862 692.531 224.421ZM695.031 220.749V219.46H696.613V218.015C696.613 216.14 697.902 215.456 699.27 215.456H700.168V216.745H699.387C698.625 216.745 698.078 217.019 698.078 218.132V219.46H700.168V220.749H698.078V229.46H696.613V220.749H695.031ZM705.656 224.421C705.656 221.296 707.531 219.226 710.344 219.226C712.863 219.226 714.68 220.788 714.875 223.171H713.352C713.274 221.569 712.102 220.593 710.344 220.593C708.332 220.593 707.18 221.999 707.18 224.421C707.18 226.862 708.352 228.288 710.344 228.288C712.082 228.288 713.254 227.39 713.352 225.886H714.875C714.641 228.19 712.844 229.655 710.344 229.655C707.551 229.655 705.656 227.565 705.656 224.421ZM716.574 224.421C716.574 221.296 718.469 219.226 721.281 219.226C724.074 219.226 725.949 221.296 725.949 224.421C725.949 227.565 724.074 229.655 721.281 229.655C718.469 229.655 716.574 227.565 716.574 224.421ZM724.426 224.421C724.426 221.999 723.274 220.593 721.281 220.593C719.27 220.593 718.098 221.999 718.098 224.421C718.098 226.862 719.27 228.288 721.281 228.288C723.274 228.288 724.426 226.862 724.426 224.421ZM727.668 224.421C727.668 221.296 729.543 219.226 732.356 219.226C734.875 219.226 736.692 220.788 736.887 223.171H735.363C735.285 221.569 734.113 220.593 732.356 220.593C730.344 220.593 729.192 221.999 729.192 224.421C729.192 226.862 730.363 228.288 732.356 228.288C734.094 228.288 735.266 227.39 735.363 225.886H736.887C736.652 228.19 734.856 229.655 732.356 229.655C729.563 229.655 727.668 227.565 727.668 224.421ZM744.914 219.46H746.77L742.492 224.362L746.965 229.46H745.149L741.438 225.3L740.266 226.647V229.46H738.781V215.456H740.266V224.909L744.914 219.46ZM753.371 228.132V229.46H752.473C751.223 229.46 750.07 228.776 750.07 226.901V220.749H748.234V219.46H750.07V216.862H751.535V219.46H753.371V220.749H751.535V226.706C751.535 227.839 751.984 228.132 752.59 228.132H753.371ZM762.961 222.819V229.46H761.477V227.683C760.734 228.894 759.445 229.675 757.922 229.675C755.988 229.675 754.621 228.444 754.621 226.687C754.621 225.065 755.676 224.069 757.492 223.952L760.305 223.737C761.164 223.698 761.477 223.405 761.477 222.741V222.702C761.477 221.452 760.383 220.495 758.957 220.495C757.297 220.495 756.399 221.198 756.242 222.624H754.699C754.836 220.573 756.496 219.245 758.938 219.245C761.262 219.245 762.961 220.769 762.961 222.819ZM756.125 226.647C756.125 227.702 756.984 228.386 758.352 228.386C760.149 228.386 761.477 227.019 761.477 225.183V224.87L758 225.104C756.75 225.202 756.125 225.71 756.125 226.647ZM764.953 216.413H766.711V218.054H764.953V216.413ZM765.09 219.46H766.574V229.46H765.09V219.46ZM768.664 215.456H770.149V229.46H768.664V215.456ZM776.223 215.456H777.707V221.315C778.41 220.007 779.621 219.226 781.145 219.226C783.781 219.226 785.539 221.296 785.539 224.421C785.539 227.565 783.781 229.655 781.145 229.655C779.621 229.655 778.41 228.874 777.707 227.546V229.46H776.223V215.456ZM784.016 224.421C784.016 221.999 782.863 220.593 780.871 220.593C778.859 220.593 777.707 221.999 777.707 224.421C777.707 226.862 778.859 228.288 780.871 228.288C782.863 228.288 784.016 226.862 784.016 224.421ZM795.598 222.819V229.46H794.113V227.683C793.371 228.894 792.082 229.675 790.559 229.675C788.625 229.675 787.258 228.444 787.258 226.687C787.258 225.065 788.313 224.069 790.129 223.952L792.942 223.737C793.801 223.698 794.113 223.405 794.113 222.741V222.702C794.113 221.452 793.02 220.495 791.594 220.495C789.934 220.495 789.035 221.198 788.879 222.624H787.336C787.473 220.573 789.133 219.245 791.574 219.245C793.899 219.245 795.598 220.769 795.598 222.819ZM788.762 226.647C788.762 227.702 789.621 228.386 790.988 228.386C792.785 228.386 794.113 227.019 794.113 225.183V224.87L790.637 225.104C789.387 225.202 788.762 225.71 788.762 226.647ZM802.414 225.202L800.793 224.987C798.742 224.733 797.629 223.894 797.629 222.194C797.629 220.378 799.113 219.265 801.555 219.265C803.879 219.265 805.422 220.476 805.617 222.468H804.152C803.918 221.12 803.098 220.495 801.535 220.495C800.07 220.495 799.094 221.14 799.094 222.116C799.094 223.073 799.738 223.464 801.008 223.62L802.649 223.815C804.836 224.069 805.871 225.026 805.871 226.823C805.871 228.542 804.328 229.636 802.004 229.636C799.367 229.636 797.766 228.366 797.531 226.452H799.074C799.309 227.8 800.246 228.405 802.004 228.405C803.449 228.405 804.406 227.8 804.406 226.843C804.406 225.905 803.762 225.358 802.414 225.202ZM807.57 224.421C807.57 221.237 809.387 219.265 812.238 219.265C814.953 219.265 816.906 221.354 816.906 224.226V224.831H809.094C809.231 227.097 810.344 228.308 812.356 228.308C813.996 228.308 814.992 227.526 815.227 226.296H816.789C816.34 228.425 814.875 229.616 812.356 229.616C809.426 229.616 807.57 227.624 807.57 224.421ZM812.238 220.534C810.402 220.534 809.328 221.589 809.133 223.64H815.324C815.168 221.745 813.957 220.534 812.238 220.534ZM823.508 225.202L821.887 224.987C819.836 224.733 818.723 223.894 818.723 222.194C818.723 220.378 820.207 219.265 822.649 219.265C824.973 219.265 826.516 220.476 826.711 222.468H825.246C825.012 221.12 824.192 220.495 822.629 220.495C821.164 220.495 820.188 221.14 820.188 222.116C820.188 223.073 820.832 223.464 822.102 223.62L823.742 223.815C825.93 224.069 826.965 225.026 826.965 226.823C826.965 228.542 825.422 229.636 823.098 229.636C820.461 229.636 818.859 228.366 818.625 226.452H820.168C820.402 227.8 821.34 228.405 823.098 228.405C824.543 228.405 825.5 227.8 825.5 226.843C825.5 225.905 824.856 225.358 823.508 225.202ZM828.723 227.624H830.481V229.46L829.719 232.155H828.586L829.777 229.46H828.723V227.624Z" fill="black"/>
<path d="M405.754 244.749V243.46H407.336V242.015C407.336 240.14 408.625 239.456 409.992 239.456H410.891V240.745H410.109C409.348 240.745 408.801 241.019 408.801 242.132V243.46H410.891V244.749H408.801V253.46H407.336V244.749H405.754ZM412.59 243.46H414.074V244.964C414.738 243.87 415.832 243.265 416.887 243.265H417.336V244.808H416.906C415.305 244.808 414.074 245.882 414.074 247.405V253.46H412.59V243.46ZM418.527 248.421C418.527 245.296 420.422 243.226 423.234 243.226C426.027 243.226 427.902 245.296 427.902 248.421C427.902 251.565 426.027 253.655 423.234 253.655C420.422 253.655 418.527 251.565 418.527 248.421ZM426.379 248.421C426.379 245.999 425.227 244.593 423.234 244.593C421.223 244.593 420.051 245.999 420.051 248.421C420.051 250.862 421.223 252.288 423.234 252.288C425.227 252.288 426.379 250.862 426.379 248.421ZM436.359 247.405C436.359 245.452 435.402 244.632 433.879 244.632C432.414 244.632 431.301 245.726 431.301 247.269V253.46H429.817V243.46H431.301V244.944C432.004 243.851 433.195 243.226 434.309 243.226C435.813 243.226 437.024 243.987 437.531 245.394C438.176 244.026 439.563 243.226 440.852 243.226C442.863 243.226 444.348 244.593 444.348 247.093V253.46H442.883V247.405C442.883 245.452 441.926 244.632 440.422 244.632C438.957 244.632 437.824 245.726 437.824 247.269V253.46H436.359V247.405ZM455.129 249.202L453.508 248.987C451.457 248.733 450.344 247.894 450.344 246.194C450.344 244.378 451.828 243.265 454.27 243.265C456.594 243.265 458.137 244.476 458.332 246.468H456.867C456.633 245.12 455.813 244.495 454.25 244.495C452.785 244.495 451.809 245.14 451.809 246.116C451.809 247.073 452.453 247.464 453.723 247.62L455.363 247.815C457.551 248.069 458.586 249.026 458.586 250.823C458.586 252.542 457.043 253.636 454.719 253.636C452.082 253.636 450.481 252.366 450.246 250.452H451.789C452.024 251.8 452.961 252.405 454.719 252.405C456.164 252.405 457.121 251.8 457.121 250.843C457.121 249.905 456.477 249.358 455.129 249.202ZM460.481 243.46H461.965V245.315C462.668 244.007 463.879 243.226 465.402 243.226C468.039 243.226 469.797 245.296 469.797 248.421C469.797 251.565 468.039 253.655 465.402 253.655C463.879 253.655 462.668 252.874 461.965 251.546V256.722H460.481V243.46ZM468.274 248.421C468.274 245.999 467.121 244.593 465.129 244.593C463.117 244.593 461.965 245.999 461.965 248.421C461.965 250.862 463.117 252.288 465.129 252.288C467.121 252.288 468.274 250.862 468.274 248.421ZM471.574 240.413H473.332V242.054H471.574V240.413ZM471.711 243.46H473.195V253.46H471.711V243.46ZM475.285 243.46H476.77V244.964C477.434 243.87 478.527 243.265 479.582 243.265H480.031V244.808H479.602C478 244.808 476.77 245.882 476.77 247.405V253.46H475.285V243.46ZM481.652 240.413H483.41V242.054H481.652V240.413ZM481.789 243.46H483.274V253.46H481.789V243.46ZM490.109 252.132V253.46H489.211C487.961 253.46 486.809 252.776 486.809 250.901V244.749H484.973V243.46H486.809V240.862H488.274V243.46H490.109V244.749H488.274V250.706C488.274 251.839 488.723 252.132 489.328 252.132H490.109ZM496.242 249.202L494.621 248.987C492.57 248.733 491.457 247.894 491.457 246.194C491.457 244.378 492.942 243.265 495.383 243.265C497.707 243.265 499.25 244.476 499.445 246.468H497.981C497.746 245.12 496.926 244.495 495.363 244.495C493.899 244.495 492.922 245.14 492.922 246.116C492.922 247.073 493.567 247.464 494.836 247.62L496.477 247.815C498.664 248.069 499.699 249.026 499.699 250.823C499.699 252.542 498.156 253.636 495.832 253.636C493.195 253.636 491.594 252.366 491.359 250.452H492.902C493.137 251.8 494.074 252.405 495.832 252.405C497.277 252.405 498.234 251.8 498.234 250.843C498.234 249.905 497.59 249.358 496.242 249.202ZM510.324 252.132V253.46H509.426C508.176 253.46 507.024 252.776 507.024 250.901V244.749H505.188V243.46H507.024V240.862H508.488V243.46H510.324V244.749H508.488V250.706C508.488 251.839 508.938 252.132 509.543 252.132H510.324ZM511.574 248.421C511.574 245.296 513.469 243.226 516.281 243.226C519.074 243.226 520.949 245.296 520.949 248.421C520.949 251.565 519.074 253.655 516.281 253.655C513.469 253.655 511.574 251.565 511.574 248.421ZM519.426 248.421C519.426 245.999 518.274 244.593 516.281 244.593C514.27 244.593 513.098 245.999 513.098 248.421C513.098 250.862 514.27 252.288 516.281 252.288C518.274 252.288 519.426 250.862 519.426 248.421ZM526.848 239.456H528.332V253.46H526.848V239.456ZM530.285 240.413H532.043V242.054H530.285V240.413ZM530.422 243.46H531.906V253.46H530.422V243.46ZM543.117 243.46V256.722H541.652V251.526C540.93 252.854 539.719 253.655 538.195 253.655C535.559 253.655 533.801 251.565 533.801 248.421C533.801 245.296 535.559 243.226 538.195 243.226C539.719 243.226 540.93 244.007 541.652 245.335V243.46H543.117ZM535.324 248.421C535.324 250.862 536.496 252.288 538.488 252.288C540.5 252.288 541.652 250.862 541.652 248.421C541.652 245.999 540.5 244.593 538.488 244.593C536.496 244.593 535.324 245.999 535.324 248.421ZM546.711 249.397C546.711 251.429 547.727 252.288 549.289 252.288C550.832 252.288 552.004 251.136 552.004 249.515V243.46H553.469V253.46H552.004V251.839C551.281 253.011 550.031 253.694 548.859 253.694C546.75 253.694 545.227 252.269 545.227 249.69V243.46H546.711V249.397ZM555.383 248.421C555.383 245.237 557.199 243.265 560.051 243.265C562.766 243.265 564.719 245.354 564.719 248.226V248.831H556.906C557.043 251.097 558.156 252.308 560.168 252.308C561.809 252.308 562.805 251.526 563.039 250.296H564.602C564.152 252.425 562.688 253.616 560.168 253.616C557.238 253.616 555.383 251.624 555.383 248.421ZM560.051 244.534C558.215 244.534 557.141 245.589 556.945 247.64H563.137C562.981 245.745 561.77 244.534 560.051 244.534ZM568.117 249.397C568.117 251.429 569.133 252.288 570.695 252.288C572.238 252.288 573.41 251.136 573.41 249.515V243.46H574.875V253.46H573.41V251.839C572.688 253.011 571.438 253.694 570.266 253.694C568.156 253.694 566.633 252.269 566.633 249.69V243.46H568.117V249.397ZM576.984 243.46H578.469V244.964C579.133 243.87 580.227 243.265 581.281 243.265H581.731V244.808H581.301C579.699 244.808 578.469 245.882 578.469 247.405V253.46H576.984V243.46ZM587.922 249.202L586.301 248.987C584.25 248.733 583.137 247.894 583.137 246.194C583.137 244.378 584.621 243.265 587.063 243.265C589.387 243.265 590.93 244.476 591.125 246.468H589.66C589.426 245.12 588.606 244.495 587.043 244.495C585.578 244.495 584.602 245.14 584.602 246.116C584.602 247.073 585.246 247.464 586.516 247.62L588.156 247.815C590.344 248.069 591.379 249.026 591.379 250.823C591.379 252.542 589.836 253.636 587.512 253.636C584.875 253.636 583.274 252.366 583.039 250.452H584.582C584.817 251.8 585.754 252.405 587.512 252.405C588.957 252.405 589.914 251.8 589.914 250.843C589.914 249.905 589.27 249.358 587.922 249.202ZM593.137 251.624H594.895V253.46L594.133 256.155H593L594.192 253.46H593.137V251.624ZM600.637 248.421C600.637 245.296 602.531 243.226 605.344 243.226C608.137 243.226 610.012 245.296 610.012 248.421C610.012 251.565 608.137 253.655 605.344 253.655C602.531 253.655 600.637 251.565 600.637 248.421ZM608.488 248.421C608.488 245.999 607.336 244.593 605.344 244.593C603.332 244.593 602.16 245.999 602.16 248.421C602.16 250.862 603.332 252.288 605.344 252.288C607.336 252.288 608.488 250.862 608.488 248.421ZM610.988 244.749V243.46H612.57V242.015C612.57 240.14 613.859 239.456 615.227 239.456H616.125V240.745H615.344C614.582 240.745 614.035 241.019 614.035 242.132V243.46H616.125V244.749H614.035V253.46H612.57V244.749H610.988ZM617.434 244.749V243.46H619.016V242.015C619.016 240.14 620.305 239.456 621.672 239.456H622.57V240.745H621.789C621.027 240.745 620.481 241.019 620.481 242.132V243.46H622.57V244.749H620.481V253.46H619.016V244.749H617.434ZM623.703 248.421C623.703 245.237 625.52 243.265 628.371 243.265C631.086 243.265 633.039 245.354 633.039 248.226V248.831H625.227C625.363 251.097 626.477 252.308 628.488 252.308C630.129 252.308 631.125 251.526 631.359 250.296H632.922C632.473 252.425 631.008 253.616 628.488 253.616C625.559 253.616 623.703 251.624 623.703 248.421ZM628.371 244.534C626.535 244.534 625.461 245.589 625.266 247.64H631.457C631.301 245.745 630.09 244.534 628.371 244.534ZM634.953 243.46H636.438V244.964C637.102 243.87 638.195 243.265 639.25 243.265H639.699V244.808H639.27C637.668 244.808 636.438 245.882 636.438 247.405V253.46H634.953V243.46ZM641.32 240.413H643.078V242.054H641.32V240.413ZM641.457 243.46H642.942V253.46H641.457V243.46ZM651.984 247.405C651.984 245.452 650.93 244.632 649.309 244.632C647.727 244.632 646.516 245.726 646.516 247.269V253.46H645.031V243.46H646.516V245.003C647.258 243.87 648.527 243.226 649.738 243.226C651.887 243.226 653.449 244.593 653.449 247.093V253.46H651.984V247.405ZM664.66 243.46V253.675C664.66 255.882 662.902 257.366 660.246 257.366C657.629 257.366 655.813 256.077 655.5 254.104H657.043C657.199 255.315 658.371 256.038 660.207 256.038C662.082 256.038 663.195 255.14 663.195 253.577V251.233C662.473 252.522 661.242 253.284 659.719 253.284C657.102 253.284 655.344 251.272 655.344 248.245C655.344 245.237 657.102 243.245 659.719 243.245C661.242 243.245 662.473 243.987 663.195 245.276V243.46H664.66ZM656.867 248.245C656.867 250.569 658.039 251.917 660.031 251.917C662.043 251.917 663.195 250.569 663.195 248.245C663.195 245.94 662.043 244.593 660.031 244.593C658.039 244.593 656.867 245.94 656.867 248.245ZM670.559 248.421C670.559 245.237 672.375 243.265 675.227 243.265C677.942 243.265 679.895 245.354 679.895 248.226V248.831H672.082C672.219 251.097 673.332 252.308 675.344 252.308C676.984 252.308 677.981 251.526 678.215 250.296H679.777C679.328 252.425 677.863 253.616 675.344 253.616C672.414 253.616 670.559 251.624 670.559 248.421ZM675.227 244.534C673.391 244.534 672.317 245.589 672.121 247.64H678.313C678.156 245.745 676.945 244.534 675.227 244.534ZM688.762 247.405C688.762 245.452 687.707 244.632 686.086 244.632C684.504 244.632 683.293 245.726 683.293 247.269V253.46H681.809V243.46H683.293V245.003C684.035 243.87 685.305 243.226 686.516 243.226C688.664 243.226 690.227 244.593 690.227 247.093V253.46H688.762V247.405ZM701.438 239.456V253.46H699.973V251.526C699.25 252.854 698.039 253.655 696.516 253.655C693.879 253.655 692.121 251.565 692.121 248.421C692.121 245.296 693.879 243.226 696.516 243.226C698.039 243.226 699.25 244.007 699.973 245.335V239.456H701.438ZM693.645 248.421C693.645 250.862 694.817 252.288 696.809 252.288C698.82 252.288 699.973 250.862 699.973 248.421C699.973 245.999 698.82 244.593 696.809 244.593C694.817 244.593 693.645 245.999 693.645 248.421ZM703.547 239.456H705.031V253.46H703.547V239.456ZM706.926 248.421C706.926 245.237 708.742 243.265 711.594 243.265C714.309 243.265 716.262 245.354 716.262 248.226V248.831H708.449C708.586 251.097 709.699 252.308 711.711 252.308C713.352 252.308 714.348 251.526 714.582 250.296H716.145C715.695 252.425 714.231 253.616 711.711 253.616C708.781 253.616 706.926 251.624 706.926 248.421ZM711.594 244.534C709.758 244.534 708.684 245.589 708.488 247.64H714.68C714.524 245.745 713.313 244.534 711.594 244.534ZM722.863 249.202L721.242 248.987C719.192 248.733 718.078 247.894 718.078 246.194C718.078 244.378 719.563 243.265 722.004 243.265C724.328 243.265 725.871 244.476 726.067 246.468H724.602C724.367 245.12 723.547 244.495 721.984 244.495C720.52 244.495 719.543 245.14 719.543 246.116C719.543 247.073 720.188 247.464 721.457 247.62L723.098 247.815C725.285 248.069 726.32 249.026 726.32 250.823C726.32 252.542 724.777 253.636 722.453 253.636C719.817 253.636 718.215 252.366 717.981 250.452H719.524C719.758 251.8 720.695 252.405 722.453 252.405C723.899 252.405 724.856 251.8 724.856 250.843C724.856 249.905 724.211 249.358 722.863 249.202ZM732.902 249.202L731.281 248.987C729.231 248.733 728.117 247.894 728.117 246.194C728.117 244.378 729.602 243.265 732.043 243.265C734.367 243.265 735.91 244.476 736.106 246.468H734.641C734.406 245.12 733.586 244.495 732.024 244.495C730.559 244.495 729.582 245.14 729.582 246.116C729.582 247.073 730.227 247.464 731.496 247.62L733.137 247.815C735.324 248.069 736.359 249.026 736.359 250.823C736.359 252.542 734.817 253.636 732.492 253.636C729.856 253.636 728.254 252.366 728.02 250.452H729.563C729.797 251.8 730.734 252.405 732.492 252.405C733.938 252.405 734.895 251.8 734.895 250.843C734.895 249.905 734.25 249.358 732.902 249.202ZM742.238 243.46H743.723V245.315C744.426 244.007 745.637 243.226 747.16 243.226C749.797 243.226 751.555 245.296 751.555 248.421C751.555 251.565 749.797 253.655 747.16 253.655C745.637 253.655 744.426 252.874 743.723 251.546V256.722H742.238V243.46ZM750.031 248.421C750.031 245.999 748.879 244.593 746.887 244.593C744.875 244.593 743.723 245.999 743.723 248.421C743.723 250.862 744.875 252.288 746.887 252.288C748.879 252.288 750.031 250.862 750.031 248.421ZM753.274 248.421C753.274 245.296 755.168 243.226 757.981 243.226C760.774 243.226 762.649 245.296 762.649 248.421C762.649 251.565 760.774 253.655 757.981 253.655C755.168 253.655 753.274 251.565 753.274 248.421ZM761.125 248.421C761.125 245.999 759.973 244.593 757.981 244.593C755.969 244.593 754.797 245.999 754.797 248.421C754.797 250.862 755.969 252.288 757.981 252.288C759.973 252.288 761.125 250.862 761.125 248.421ZM769.25 249.202L767.629 248.987C765.578 248.733 764.465 247.894 764.465 246.194C764.465 244.378 765.949 243.265 768.391 243.265C770.715 243.265 772.258 244.476 772.453 246.468H770.988C770.754 245.12 769.934 244.495 768.371 244.495C766.906 244.495 765.93 245.14 765.93 246.116C765.93 247.073 766.574 247.464 767.844 247.62L769.484 247.815C771.672 248.069 772.707 249.026 772.707 250.823C772.707 252.542 771.164 253.636 768.84 253.636C766.203 253.636 764.602 252.366 764.367 250.452H765.91C766.145 251.8 767.082 252.405 768.84 252.405C770.285 252.405 771.242 251.8 771.242 250.843C771.242 249.905 770.598 249.358 769.25 249.202ZM779.289 249.202L777.668 248.987C775.617 248.733 774.504 247.894 774.504 246.194C774.504 244.378 775.988 243.265 778.43 243.265C780.754 243.265 782.297 244.476 782.492 246.468H781.027C780.793 245.12 779.973 244.495 778.41 244.495C776.945 244.495 775.969 245.14 775.969 246.116C775.969 247.073 776.613 247.464 777.883 247.62L779.524 247.815C781.711 248.069 782.746 249.026 782.746 250.823C782.746 252.542 781.203 253.636 778.879 253.636C776.242 253.636 774.641 252.366 774.406 250.452H775.949C776.184 251.8 777.121 252.405 778.879 252.405C780.324 252.405 781.281 251.8 781.281 250.843C781.281 249.905 780.637 249.358 779.289 249.202ZM784.504 240.413H786.262V242.054H784.504V240.413ZM784.641 243.46H786.125V253.46H784.641V243.46ZM788.215 239.456H789.699V245.315C790.402 244.007 791.613 243.226 793.137 243.226C795.774 243.226 797.531 245.296 797.531 248.421C797.531 251.565 795.774 253.655 793.137 253.655C791.613 253.655 790.402 252.874 789.699 251.546V253.46H788.215V239.456ZM796.008 248.421C796.008 245.999 794.856 244.593 792.863 244.593C790.852 244.593 789.699 245.999 789.699 248.421C789.699 250.862 790.852 252.288 792.863 252.288C794.856 252.288 796.008 250.862 796.008 248.421ZM799.309 240.413H801.067V242.054H799.309V240.413ZM799.445 243.46H800.93V253.46H799.445V243.46ZM803.02 239.456H804.504V253.46H803.02V239.456ZM806.457 240.413H808.215V242.054H806.457V240.413ZM806.594 243.46H808.078V253.46H806.594V243.46ZM814.914 252.132V253.46H814.016C812.766 253.46 811.613 252.776 811.613 250.901V244.749H809.777V243.46H811.613V240.862H813.078V243.46H814.914V244.749H813.078V250.706C813.078 251.839 813.527 252.132 814.133 252.132H814.914ZM816.477 240.413H818.234V242.054H816.477V240.413ZM816.613 243.46H818.098V253.46H816.613V243.46ZM819.992 248.421C819.992 245.237 821.809 243.265 824.66 243.265C827.375 243.265 829.328 245.354 829.328 248.226V248.831H821.516C821.652 251.097 822.766 252.308 824.777 252.308C826.418 252.308 827.414 251.526 827.649 250.296H829.211C828.762 252.425 827.297 253.616 824.777 253.616C821.848 253.616 819.992 251.624 819.992 248.421ZM824.66 244.534C822.824 244.534 821.75 245.589 821.555 247.64H827.746C827.59 245.745 826.379 244.534 824.66 244.534ZM835.93 249.202L834.309 248.987C832.258 248.733 831.145 247.894 831.145 246.194C831.145 244.378 832.629 243.265 835.07 243.265C837.395 243.265 838.938 244.476 839.133 246.468H837.668C837.434 245.12 836.613 244.495 835.051 244.495C833.586 244.495 832.609 245.14 832.609 246.116C832.609 247.073 833.254 247.464 834.524 247.62L836.164 247.815C838.352 248.069 839.387 249.026 839.387 250.823C839.387 252.542 837.844 253.636 835.52 253.636C832.883 253.636 831.281 252.366 831.047 250.452H832.59C832.824 251.8 833.762 252.405 835.52 252.405C836.965 252.405 837.922 251.8 837.922 250.843C837.922 249.905 837.277 249.358 835.93 249.202Z" fill="black"/>
<path d="M405.754 268.749V267.46H407.336V266.015C407.336 264.14 408.625 263.456 409.992 263.456H410.891V264.745H410.109C409.348 264.745 408.801 265.019 408.801 266.132V267.46H410.891V268.749H408.801V277.46H407.336V268.749H405.754ZM412.024 272.421C412.024 269.296 413.918 267.226 416.731 267.226C419.524 267.226 421.399 269.296 421.399 272.421C421.399 275.565 419.524 277.655 416.731 277.655C413.918 277.655 412.024 275.565 412.024 272.421ZM419.875 272.421C419.875 269.999 418.723 268.593 416.731 268.593C414.719 268.593 413.547 269.999 413.547 272.421C413.547 274.862 414.719 276.288 416.731 276.288C418.723 276.288 419.875 274.862 419.875 272.421ZM423.313 267.46H424.797V268.964C425.461 267.87 426.555 267.265 427.609 267.265H428.059V268.808H427.629C426.027 268.808 424.797 269.882 424.797 271.405V277.46H423.313V267.46ZM433.606 272.421C433.606 269.296 435.481 267.226 438.293 267.226C440.813 267.226 442.629 268.788 442.824 271.171H441.301C441.223 269.569 440.051 268.593 438.293 268.593C436.281 268.593 435.129 269.999 435.129 272.421C435.129 274.862 436.301 276.288 438.293 276.288C440.031 276.288 441.203 275.39 441.301 273.886H442.824C442.59 276.19 440.793 277.655 438.293 277.655C435.5 277.655 433.606 275.565 433.606 272.421ZM444.719 267.46H446.203V268.964C446.867 267.87 447.961 267.265 449.016 267.265H449.465V268.808H449.035C447.434 268.808 446.203 269.882 446.203 271.405V277.46H444.719V267.46ZM450.656 272.421C450.656 269.237 452.473 267.265 455.324 267.265C458.039 267.265 459.992 269.354 459.992 272.226V272.831H452.18C452.317 275.097 453.43 276.308 455.442 276.308C457.082 276.308 458.078 275.526 458.313 274.296H459.875C459.426 276.425 457.961 277.616 455.442 277.616C452.512 277.616 450.656 275.624 450.656 272.421ZM455.324 268.534C453.488 268.534 452.414 269.589 452.219 271.64H458.41C458.254 269.745 457.043 268.534 455.324 268.534ZM470.051 270.819V277.46H468.567V275.683C467.824 276.894 466.535 277.675 465.012 277.675C463.078 277.675 461.711 276.444 461.711 274.687C461.711 273.065 462.766 272.069 464.582 271.952L467.395 271.737C468.254 271.698 468.567 271.405 468.567 270.741V270.702C468.567 269.452 467.473 268.495 466.047 268.495C464.387 268.495 463.488 269.198 463.332 270.624H461.789C461.926 268.573 463.586 267.245 466.027 267.245C468.352 267.245 470.051 268.769 470.051 270.819ZM463.215 274.647C463.215 275.702 464.074 276.386 465.442 276.386C467.238 276.386 468.567 275.019 468.567 273.183V272.87L465.09 273.104C463.84 273.202 463.215 273.71 463.215 274.647ZM476.672 276.132V277.46H475.774C474.524 277.46 473.371 276.776 473.371 274.901V268.749H471.535V267.46H473.371V264.862H474.836V267.46H476.672V268.749H474.836V274.706C474.836 275.839 475.285 276.132 475.891 276.132H476.672ZM478.234 264.413H479.992V266.054H478.234V264.413ZM478.371 267.46H479.856V277.46H478.371V267.46ZM481.555 267.46H483.156L486.32 275.8L489.426 267.46H491.047L487.141 277.46H485.461L481.555 267.46ZM492.024 272.421C492.024 269.237 493.84 267.265 496.692 267.265C499.406 267.265 501.359 269.354 501.359 272.226V272.831H493.547C493.684 275.097 494.797 276.308 496.809 276.308C498.449 276.308 499.445 275.526 499.68 274.296H501.242C500.793 276.425 499.328 277.616 496.809 277.616C493.879 277.616 492.024 275.624 492.024 272.421ZM496.692 268.534C494.856 268.534 493.781 269.589 493.586 271.64H499.777C499.621 269.745 498.41 268.534 496.692 268.534ZM507.063 272.421C507.063 269.237 508.879 267.265 511.731 267.265C514.445 267.265 516.399 269.354 516.399 272.226V272.831H508.586C508.723 275.097 509.836 276.308 511.848 276.308C513.488 276.308 514.484 275.526 514.719 274.296H516.281C515.832 276.425 514.367 277.616 511.848 277.616C508.918 277.616 507.063 275.624 507.063 272.421ZM511.731 268.534C509.895 268.534 508.82 269.589 508.625 271.64H514.817C514.66 269.745 513.449 268.534 511.731 268.534ZM517.238 267.46H518.918L521.633 271.64L524.445 267.46H526.125L522.863 272.401L526.125 277.46H524.445L521.731 273.144L518.938 277.46H517.238L520.5 272.382L517.238 267.46ZM527.824 267.46H529.309V269.315C530.012 268.007 531.223 267.226 532.746 267.226C535.383 267.226 537.141 269.296 537.141 272.421C537.141 275.565 535.383 277.655 532.746 277.655C531.223 277.655 530.012 276.874 529.309 275.546V280.722H527.824V267.46ZM535.617 272.421C535.617 269.999 534.465 268.593 532.473 268.593C530.461 268.593 529.309 269.999 529.309 272.421C529.309 274.862 530.461 276.288 532.473 276.288C534.465 276.288 535.617 274.862 535.617 272.421ZM539.055 267.46H540.539V268.964C541.203 267.87 542.297 267.265 543.352 267.265H543.801V268.808H543.371C541.77 268.808 540.539 269.882 540.539 271.405V277.46H539.055V267.46ZM544.992 272.421C544.992 269.237 546.809 267.265 549.66 267.265C552.375 267.265 554.328 269.354 554.328 272.226V272.831H546.516C546.652 275.097 547.766 276.308 549.777 276.308C551.418 276.308 552.414 275.526 552.649 274.296H554.211C553.762 276.425 552.297 277.616 549.777 277.616C546.848 277.616 544.992 275.624 544.992 272.421ZM549.66 268.534C547.824 268.534 546.75 269.589 546.555 271.64H552.746C552.59 269.745 551.379 268.534 549.66 268.534ZM560.93 273.202L559.309 272.987C557.258 272.733 556.145 271.894 556.145 270.194C556.145 268.378 557.629 267.265 560.07 267.265C562.395 267.265 563.938 268.476 564.133 270.468H562.668C562.434 269.12 561.613 268.495 560.051 268.495C558.586 268.495 557.609 269.14 557.609 270.116C557.609 271.073 558.254 271.464 559.524 271.62L561.164 271.815C563.352 272.069 564.387 273.026 564.387 274.823C564.387 276.542 562.844 277.636 560.52 277.636C557.883 277.636 556.281 276.366 556.047 274.452H557.59C557.824 275.8 558.762 276.405 560.52 276.405C561.965 276.405 562.922 275.8 562.922 274.843C562.922 273.905 562.277 273.358 560.93 273.202ZM570.969 273.202L569.348 272.987C567.297 272.733 566.184 271.894 566.184 270.194C566.184 268.378 567.668 267.265 570.109 267.265C572.434 267.265 573.977 268.476 574.172 270.468H572.707C572.473 269.12 571.652 268.495 570.09 268.495C568.625 268.495 567.649 269.14 567.649 270.116C567.649 271.073 568.293 271.464 569.563 271.62L571.203 271.815C573.391 272.069 574.426 273.026 574.426 274.823C574.426 276.542 572.883 277.636 570.559 277.636C567.922 277.636 566.32 276.366 566.086 274.452H567.629C567.863 275.8 568.801 276.405 570.559 276.405C572.004 276.405 572.961 275.8 572.961 274.843C572.961 273.905 572.317 273.358 570.969 273.202ZM576.184 264.413H577.942V266.054H576.184V264.413ZM576.32 267.46H577.805V277.46H576.32V267.46ZM579.699 272.421C579.699 269.296 581.594 267.226 584.406 267.226C587.199 267.226 589.074 269.296 589.074 272.421C589.074 275.565 587.199 277.655 584.406 277.655C581.594 277.655 579.699 275.565 579.699 272.421ZM587.551 272.421C587.551 269.999 586.399 268.593 584.406 268.593C582.395 268.593 581.223 269.999 581.223 272.421C581.223 274.862 582.395 276.288 584.406 276.288C586.399 276.288 587.551 274.862 587.551 272.421ZM597.942 271.405C597.942 269.452 596.887 268.632 595.266 268.632C593.684 268.632 592.473 269.726 592.473 271.269V277.46H590.988V267.46H592.473V269.003C593.215 267.87 594.484 267.226 595.695 267.226C597.844 267.226 599.406 268.593 599.406 271.093V277.46H597.942V271.405ZM601.359 275.624H603.117V277.46H601.359V275.624ZM608.859 270.917C608.859 266.913 611.106 264.257 614.504 264.257C617.57 264.257 619.797 266.034 620.012 268.808H618.488C618.391 266.854 616.848 265.644 614.524 265.644C611.906 265.644 610.383 267.577 610.383 270.917C610.383 274.276 611.906 276.21 614.524 276.21C616.828 276.21 618.352 274.999 618.488 273.046H620.012C619.758 275.878 617.551 277.616 614.504 277.616C611.125 277.616 608.859 274.94 608.859 270.917ZM628.879 271.405C628.879 269.452 627.824 268.632 626.184 268.632C624.602 268.632 623.41 269.726 623.41 271.269V277.46H621.926V263.456H623.41V269.003C624.133 267.87 625.422 267.226 626.613 267.226C628.781 267.226 630.344 268.593 630.344 271.093V277.46H628.879V271.405ZM632.238 272.421C632.238 269.237 634.055 267.265 636.906 267.265C639.621 267.265 641.574 269.354 641.574 272.226V272.831H633.762C633.899 275.097 635.012 276.308 637.024 276.308C638.664 276.308 639.66 275.526 639.895 274.296H641.457C641.008 276.425 639.543 277.616 637.024 277.616C634.094 277.616 632.238 275.624 632.238 272.421ZM636.906 268.534C635.07 268.534 633.996 269.589 633.801 271.64H639.992C639.836 269.745 638.625 268.534 636.906 268.534ZM643.293 272.421C643.293 269.237 645.109 267.265 647.961 267.265C650.676 267.265 652.629 269.354 652.629 272.226V272.831H644.817C644.953 275.097 646.067 276.308 648.078 276.308C649.719 276.308 650.715 275.526 650.949 274.296H652.512C652.063 276.425 650.598 277.616 648.078 277.616C645.149 277.616 643.293 275.624 643.293 272.421ZM647.961 268.534C646.125 268.534 645.051 269.589 644.856 271.64H651.047C650.891 269.745 649.68 268.534 647.961 268.534ZM654.543 267.46H656.027V268.964C656.692 267.87 657.785 267.265 658.84 267.265H659.289V268.808H658.859C657.258 268.808 656.027 269.882 656.027 271.405V277.46H654.543V267.46ZM665.481 273.202L663.859 272.987C661.809 272.733 660.695 271.894 660.695 270.194C660.695 268.378 662.18 267.265 664.621 267.265C666.945 267.265 668.488 268.476 668.684 270.468H667.219C666.984 269.12 666.164 268.495 664.602 268.495C663.137 268.495 662.16 269.14 662.16 270.116C662.16 271.073 662.805 271.464 664.074 271.62L665.715 271.815C667.902 272.069 668.938 273.026 668.938 274.823C668.938 276.542 667.395 277.636 665.07 277.636C662.434 277.636 660.832 276.366 660.598 274.452H662.141C662.375 275.8 663.313 276.405 665.07 276.405C666.516 276.405 667.473 275.8 667.473 274.843C667.473 273.905 666.828 273.358 665.481 273.202ZM679.563 276.132V277.46H678.664C677.414 277.46 676.262 276.776 676.262 274.901V268.749H674.426V267.46H676.262V264.862H677.727V267.46H679.563V268.749H677.727V274.706C677.727 275.839 678.176 276.132 678.781 276.132H679.563ZM680.813 272.421C680.813 269.296 682.707 267.226 685.52 267.226C688.313 267.226 690.188 269.296 690.188 272.421C690.188 275.565 688.313 277.655 685.52 277.655C682.707 277.655 680.813 275.565 680.813 272.421ZM688.664 272.421C688.664 269.999 687.512 268.593 685.52 268.593C683.508 268.593 682.336 269.999 682.336 272.421C682.336 274.862 683.508 276.288 685.52 276.288C687.512 276.288 688.664 274.862 688.664 272.421ZM695.891 272.421C695.891 269.237 697.707 267.265 700.559 267.265C703.274 267.265 705.227 269.354 705.227 272.226V272.831H697.414C697.551 275.097 698.664 276.308 700.676 276.308C702.317 276.308 703.313 275.526 703.547 274.296H705.109C704.66 276.425 703.195 277.616 700.676 277.616C697.746 277.616 695.891 275.624 695.891 272.421ZM700.559 268.534C698.723 268.534 697.649 269.589 697.453 271.64H703.645C703.488 269.745 702.277 268.534 700.559 268.534ZM714.094 271.405C714.094 269.452 713.039 268.632 711.418 268.632C709.836 268.632 708.625 269.726 708.625 271.269V277.46H707.141V267.46H708.625V269.003C709.367 267.87 710.637 267.226 711.848 267.226C713.996 267.226 715.559 268.593 715.559 271.093V277.46H714.094V271.405ZM726.77 263.456V277.46H725.305V275.526C724.582 276.854 723.371 277.655 721.848 277.655C719.211 277.655 717.453 275.565 717.453 272.421C717.453 269.296 719.211 267.226 721.848 267.226C723.371 267.226 724.582 268.007 725.305 269.335V263.456H726.77ZM718.977 272.421C718.977 274.862 720.149 276.288 722.141 276.288C724.152 276.288 725.305 274.862 725.305 272.421C725.305 269.999 724.152 268.593 722.141 268.593C720.149 268.593 718.977 269.999 718.977 272.421ZM728.879 263.456H730.363V277.46H728.879V263.456ZM732.258 272.421C732.258 269.237 734.074 267.265 736.926 267.265C739.641 267.265 741.594 269.354 741.594 272.226V272.831H733.781C733.918 275.097 735.031 276.308 737.043 276.308C738.684 276.308 739.68 275.526 739.914 274.296H741.477C741.027 276.425 739.563 277.616 737.043 277.616C734.113 277.616 732.258 275.624 732.258 272.421ZM736.926 268.534C735.09 268.534 734.016 269.589 733.82 271.64H740.012C739.856 269.745 738.645 268.534 736.926 268.534ZM748.195 273.202L746.574 272.987C744.524 272.733 743.41 271.894 743.41 270.194C743.41 268.378 744.895 267.265 747.336 267.265C749.66 267.265 751.203 268.476 751.399 270.468H749.934C749.699 269.12 748.879 268.495 747.317 268.495C745.852 268.495 744.875 269.14 744.875 270.116C744.875 271.073 745.52 271.464 746.789 271.62L748.43 271.815C750.617 272.069 751.652 273.026 751.652 274.823C751.652 276.542 750.109 277.636 747.785 277.636C745.149 277.636 743.547 276.366 743.313 274.452H744.856C745.09 275.8 746.027 276.405 747.785 276.405C749.231 276.405 750.188 275.8 750.188 274.843C750.188 273.905 749.543 273.358 748.195 273.202ZM758.234 273.202L756.613 272.987C754.563 272.733 753.449 271.894 753.449 270.194C753.449 268.378 754.934 267.265 757.375 267.265C759.699 267.265 761.242 268.476 761.438 270.468H759.973C759.738 269.12 758.918 268.495 757.356 268.495C755.891 268.495 754.914 269.14 754.914 270.116C754.914 271.073 755.559 271.464 756.828 271.62L758.469 271.815C760.656 272.069 761.692 273.026 761.692 274.823C761.692 276.542 760.149 277.636 757.824 277.636C755.188 277.636 753.586 276.366 753.352 274.452H754.895C755.129 275.8 756.067 276.405 757.824 276.405C759.27 276.405 760.227 275.8 760.227 274.843C760.227 273.905 759.582 273.358 758.234 273.202Z" fill="black"/>
<path d="M405.949 296.421C405.949 293.237 407.766 291.265 410.617 291.265C413.332 291.265 415.285 293.354 415.285 296.226V296.831H407.473C407.609 299.097 408.723 300.308 410.734 300.308C412.375 300.308 413.371 299.526 413.606 298.296H415.168C414.719 300.425 413.254 301.616 410.734 301.616C407.805 301.616 405.949 299.624 405.949 296.421ZM410.617 292.534C408.781 292.534 407.707 293.589 407.512 295.64H413.703C413.547 293.745 412.336 292.534 410.617 292.534ZM416.125 291.46H417.805L420.52 295.64L423.332 291.46H425.012L421.75 296.401L425.012 301.46H423.332L420.617 297.144L417.824 301.46H416.125L419.387 296.382L416.125 291.46ZM426.711 291.46H428.195V293.315C428.899 292.007 430.109 291.226 431.633 291.226C434.27 291.226 436.027 293.296 436.027 296.421C436.027 299.565 434.27 301.655 431.633 301.655C430.109 301.655 428.899 300.874 428.195 299.546V304.722H426.711V291.46ZM434.504 296.421C434.504 293.999 433.352 292.593 431.359 292.593C429.348 292.593 428.195 293.999 428.195 296.421C428.195 298.862 429.348 300.288 431.359 300.288C433.352 300.288 434.504 298.862 434.504 296.421ZM437.942 287.456H439.426V301.46H437.942V287.456ZM441.32 296.421C441.32 293.296 443.215 291.226 446.027 291.226C448.82 291.226 450.695 293.296 450.695 296.421C450.695 299.565 448.82 301.655 446.027 301.655C443.215 301.655 441.32 299.565 441.32 296.421ZM449.172 296.421C449.172 293.999 448.02 292.593 446.027 292.593C444.016 292.593 442.844 293.999 442.844 296.421C442.844 298.862 444.016 300.288 446.027 300.288C448.02 300.288 449.172 298.862 449.172 296.421ZM452.609 291.46H454.094V292.964C454.758 291.87 455.852 291.265 456.906 291.265H457.356V292.808H456.926C455.324 292.808 454.094 293.882 454.094 295.405V301.46H452.609V291.46ZM467.004 294.819V301.46H465.52V299.683C464.777 300.894 463.488 301.675 461.965 301.675C460.031 301.675 458.664 300.444 458.664 298.687C458.664 297.065 459.719 296.069 461.535 295.952L464.348 295.737C465.207 295.698 465.52 295.405 465.52 294.741V294.702C465.52 293.452 464.426 292.495 463 292.495C461.34 292.495 460.442 293.198 460.285 294.624H458.742C458.879 292.573 460.539 291.245 462.981 291.245C465.305 291.245 467.004 292.769 467.004 294.819ZM460.168 298.647C460.168 299.702 461.027 300.386 462.395 300.386C464.192 300.386 465.52 299.019 465.52 297.183V296.87L462.043 297.104C460.793 297.202 460.168 297.71 460.168 298.647ZM473.625 300.132V301.46H472.727C471.477 301.46 470.324 300.776 470.324 298.901V292.749H468.488V291.46H470.324V288.862H471.789V291.46H473.625V292.749H471.789V298.706C471.789 299.839 472.238 300.132 472.844 300.132H473.625ZM475.188 288.413H476.945V290.054H475.188V288.413ZM475.324 291.46H476.809V301.46H475.324V291.46ZM478.703 296.421C478.703 293.296 480.598 291.226 483.41 291.226C486.203 291.226 488.078 293.296 488.078 296.421C488.078 299.565 486.203 301.655 483.41 301.655C480.598 301.655 478.703 299.565 478.703 296.421ZM486.555 296.421C486.555 293.999 485.402 292.593 483.41 292.593C481.399 292.593 480.227 293.999 480.227 296.421C480.227 298.862 481.399 300.288 483.41 300.288C485.402 300.288 486.555 298.862 486.555 296.421ZM496.945 295.405C496.945 293.452 495.891 292.632 494.27 292.632C492.688 292.632 491.477 293.726 491.477 295.269V301.46H489.992V291.46H491.477V293.003C492.219 291.87 493.488 291.226 494.699 291.226C496.848 291.226 498.41 292.593 498.41 295.093V301.46H496.945V295.405ZM512.629 294.819V301.46H511.145V299.683C510.402 300.894 509.113 301.675 507.59 301.675C505.656 301.675 504.289 300.444 504.289 298.687C504.289 297.065 505.344 296.069 507.16 295.952L509.973 295.737C510.832 295.698 511.145 295.405 511.145 294.741V294.702C511.145 293.452 510.051 292.495 508.625 292.495C506.965 292.495 506.067 293.198 505.91 294.624H504.367C504.504 292.573 506.164 291.245 508.606 291.245C510.93 291.245 512.629 292.769 512.629 294.819ZM505.793 298.647C505.793 299.702 506.652 300.386 508.02 300.386C509.817 300.386 511.145 299.019 511.145 297.183V296.87L507.668 297.104C506.418 297.202 505.793 297.71 505.793 298.647ZM521.711 295.405C521.711 293.452 520.656 292.632 519.035 292.632C517.453 292.632 516.242 293.726 516.242 295.269V301.46H514.758V291.46H516.242V293.003C516.984 291.87 518.254 291.226 519.465 291.226C521.613 291.226 523.176 292.593 523.176 295.093V301.46H521.711V295.405ZM534.387 287.456V301.46H532.922V299.526C532.199 300.854 530.988 301.655 529.465 301.655C526.828 301.655 525.07 299.565 525.07 296.421C525.07 293.296 526.828 291.226 529.465 291.226C530.988 291.226 532.199 292.007 532.922 293.335V287.456H534.387ZM526.594 296.421C526.594 298.862 527.766 300.288 529.758 300.288C531.77 300.288 532.922 298.862 532.922 296.421C532.922 293.999 531.77 292.593 529.758 292.593C527.766 292.593 526.594 293.999 526.594 296.421ZM540.285 296.421C540.285 293.237 542.102 291.265 544.953 291.265C547.668 291.265 549.621 293.354 549.621 296.226V296.831H541.809C541.945 299.097 543.059 300.308 545.07 300.308C546.711 300.308 547.707 299.526 547.942 298.296H549.504C549.055 300.425 547.59 301.616 545.07 301.616C542.141 301.616 540.285 299.624 540.285 296.421ZM544.953 292.534C543.117 292.534 542.043 293.589 541.848 295.64H548.039C547.883 293.745 546.672 292.534 544.953 292.534ZM558.488 295.405C558.488 293.452 557.434 292.632 555.813 292.632C554.231 292.632 553.02 293.726 553.02 295.269V301.46H551.535V291.46H553.02V293.003C553.762 291.87 555.031 291.226 556.242 291.226C558.391 291.226 559.953 292.593 559.953 295.093V301.46H558.488V295.405ZM561.906 288.413H563.664V290.054H561.906V288.413ZM560.285 303.335H560.91C561.574 303.335 562.043 303.062 562.043 301.948V291.46H563.527V302.065C563.527 303.979 562.317 304.702 561.047 304.702H560.285V303.335ZM565.422 296.421C565.422 293.296 567.317 291.226 570.129 291.226C572.922 291.226 574.797 293.296 574.797 296.421C574.797 299.565 572.922 301.655 570.129 301.655C567.317 301.655 565.422 299.565 565.422 296.421ZM573.274 296.421C573.274 293.999 572.121 292.593 570.129 292.593C568.117 292.593 566.945 293.999 566.945 296.421C566.945 298.862 568.117 300.288 570.129 300.288C572.121 300.288 573.274 298.862 573.274 296.421ZM576.32 303.218H577.707C578.664 303.218 579.152 302.886 579.484 301.929L579.719 301.362L575.774 291.46H577.375L580.578 299.702L583.703 291.46H585.324L581.223 302.085C580.5 303.921 579.68 304.644 578.234 304.644H576.32V303.218ZM593.586 295.405C593.586 293.452 592.629 292.632 591.106 292.632C589.641 292.632 588.527 293.726 588.527 295.269V301.46H587.043V291.46H588.527V292.944C589.231 291.851 590.422 291.226 591.535 291.226C593.039 291.226 594.25 291.987 594.758 293.394C595.402 292.026 596.789 291.226 598.078 291.226C600.09 291.226 601.574 292.593 601.574 295.093V301.46H600.109V295.405C600.109 293.452 599.152 292.632 597.649 292.632C596.184 292.632 595.051 293.726 595.051 295.269V301.46H593.586V295.405ZM603.488 296.421C603.488 293.237 605.305 291.265 608.156 291.265C610.871 291.265 612.824 293.354 612.824 296.226V296.831H605.012C605.149 299.097 606.262 300.308 608.274 300.308C609.914 300.308 610.91 299.526 611.145 298.296H612.707C612.258 300.425 610.793 301.616 608.274 301.616C605.344 301.616 603.488 299.624 603.488 296.421ZM608.156 292.534C606.32 292.534 605.246 293.589 605.051 295.64H611.242C611.086 293.745 609.875 292.534 608.156 292.534ZM621.692 295.405C621.692 293.452 620.637 292.632 619.016 292.632C617.434 292.632 616.223 293.726 616.223 295.269V301.46H614.738V291.46H616.223V293.003C616.965 291.87 618.234 291.226 619.445 291.226C621.594 291.226 623.156 292.593 623.156 295.093V301.46H621.692V295.405ZM629.738 300.132V301.46H628.84C627.59 301.46 626.438 300.776 626.438 298.901V292.749H624.602V291.46H626.438V288.862H627.902V291.46H629.738V292.749H627.902V298.706C627.902 299.839 628.352 300.132 628.957 300.132H629.738ZM632.766 298.413H631.574L631.438 288.452H632.922L632.766 298.413ZM633.059 301.46H631.301V299.8H633.059V301.46Z" fill="black"/>
<path d="M301.51 231.71C299.86 230.65 298.2 229.58 296.55 228.52C295.72 227.99 294.89 227.45 294.1 226.86C290.55 224.17 287.92 220.21 283.89 218.31" stroke="black" stroke-miterlimit="10"/>
<path d="M-226.42 301.62C-183.99 303.9 -141.31 305.97 -98.94 301.64C-56.74 297.32 -14.65 288.47 27.21 281.58C31.95 280.8 36.69 280.02 41.43 279.24C63.52 275.61 87.82 268.43 110.17 269.2C119.49 269.52 128.26 273.09 137.4 274.62C155.94 277.71 175.82 276.84 194.06 272.23C205.76 269.28 215.37 263.26 226.03 257.92C233.06 254.4 240.18 252.59 248.04 253.09C256.63 253.64 264.95 256.34 273.58 256.5C278.83 256.59 286.66 254.36 285.25 247.43C284.91 245.75 284.03 244.23 283.03 242.85C276.04 233.2 262.75 228.1 251.11 228.59C252.94 225.54 255.62 221.22 259.15 220.72C268.94 219.32 278.02 223.97 283.76 231.71C287.28 236.46 294.12 248.52 301.65 244.62C305.34 242.71 304.34 237.96 303.4 234.74C303.1 234.83 303.7 234.65 303.4 234.74C309.94 232.74 318.55 229.27 317.38 220.69C316.94 217.47 315.58 213.98 314.11 211.09C313.33 209.56 312.57 207.62 312.4 205.91C316.68 206.46 320.56 202.54 321.31 198.28C322.83 189.65 316.43 180.91 310.46 175.39C303.4 168.86 294.6 165.13 285.39 162.72C275.16 160.05 264.58 158.44 254.78 154.34C245.06 150.27 236.4 143.24 225.49 142.54C207.24 141.36 195.41 155.37 182.11 165.49C169.33 175.21 155.5 183.87 140.26 189.13C123.47 194.93 105.44 194.69 87.89 194.49C62.94 194.2 38.02 192.81 13.12 191.37C-20.76 189.41 -54.66 187.34 -88.34 183.04C-123.03 178.61 -156.31 168.24 -190.7 162.32C-199.4 160.82 -208.16 159.68 -216.97 159.13" fill="#FAF6EA"/>
<path d="M-226.42 301.62C-183.99 303.9 -141.31 305.97 -98.94 301.64C-56.74 297.32 -14.65 288.47 27.21 281.58C31.95 280.8 36.69 280.02 41.43 279.24C63.52 275.61 87.82 268.43 110.17 269.2C119.49 269.52 128.26 273.09 137.4 274.62C155.94 277.71 175.82 276.84 194.06 272.23C205.76 269.28 215.37 263.26 226.03 257.92C233.06 254.4 240.18 252.59 248.04 253.09C256.63 253.64 264.95 256.34 273.58 256.5C278.83 256.59 286.66 254.36 285.25 247.43C284.91 245.75 284.03 244.23 283.03 242.85C276.04 233.2 262.75 228.1 251.11 228.59C252.94 225.54 255.62 221.22 259.15 220.72C268.94 219.32 278.02 223.97 283.76 231.71C287.28 236.46 294.12 248.52 301.65 244.62C305.34 242.71 304.34 237.96 303.4 234.74M303.4 234.74C303.1 234.83 303.7 234.65 303.4 234.74ZM303.4 234.74C309.94 232.74 318.55 229.27 317.38 220.69C316.94 217.47 315.58 213.98 314.11 211.09C313.33 209.56 312.57 207.62 312.4 205.91C316.68 206.46 320.56 202.54 321.31 198.28C322.83 189.65 316.43 180.91 310.46 175.39C303.4 168.86 294.6 165.13 285.39 162.72C275.16 160.05 264.58 158.44 254.78 154.34C245.06 150.27 236.4 143.24 225.49 142.54C207.24 141.36 195.41 155.37 182.11 165.49C169.33 175.21 155.5 183.87 140.26 189.13C123.47 194.93 105.44 194.69 87.89 194.49C62.94 194.2 38.02 192.81 13.12 191.37C-20.76 189.41 -54.66 187.34 -88.34 183.04C-123.03 178.61 -156.31 168.24 -190.7 162.32C-199.4 160.82 -208.16 159.68 -216.97 159.13" stroke="black" stroke-miterlimit="10"/>
<path d="M303.74 234.79C297.76 233.54 293.21 230.05 290.13 224.73" stroke="black" stroke-miterlimit="10"/>
<path d="M229.62 316.25C229.11 323.61 252.14 328.77 280.87 330.77C309.59 332.77 333.12 330.86 333.64 323.5C334.15 316.14 311.52 305.13 282.8 303.13C254.08 301.13 230.14 308.88 229.63 316.25H229.62Z" fill="#FAF6EA" stroke="black" stroke-miterlimit="10"/>
<path d="M280.45 290.32L288.42 176.07C288.6 173.49 285.29 170.96 282.41 170.76C285.6 171.11 288.87 171.41 292.25 171.64C295.43 171.86 298.53 172.01 301.56 172.11C298.67 171.91 295.05 173.96 294.87 176.54L286.9 290.77C286.36 298.45 303.95 298.92 303 312.73C302.81 315.45 293.31 317.75 281.83 316.95C270.36 316.15 261.27 312.55 261.45 309.83C262.43 296.02 279.91 298 280.44 290.32H280.45Z" fill="#FAF6EA" stroke="black" stroke-miterlimit="10"/>
<path d="M248.84 64.9901C252.87 28.7001 259.42 11.4801 260.5 8.83008C260.47 8.90008 260.45 8.97005 260.43 9.05005C260.43 9.05005 260.43 9.05006 260.43 9.06006C260.38 9.24006 260.35 9.43006 260.34 9.62006C260.34 9.73006 260.34 9.85008 260.34 9.96008C260.63 15.9301 279.15 21.98 302.3 23.6C325.45 25.21 344.63 21.79 345.74 15.92L345.79 15.5801C345.8 15.4001 345.79 15.22 345.78 15.04C345.78 15.02 345.78 15.0101 345.78 14.9901C345.75 14.7901 345.7 14.5901 345.64 14.3901H345.65C345.65 14.3901 350.64 32.1501 349.5 72.0101C348.2 117.22 335.85 159.08 301.59 172.11C298.86 173.15 294.29 173.52 291.87 173.35C289.46 173.18 284.98 172.18 282.42 170.78C250.3 153.12 243.88 109.94 248.86 64.9901H248.84Z" fill="#FAF6EA" stroke="black" stroke-miterlimit="10"/>
<path d="M248.84 64.9901C252.87 28.7001 259.42 11.4801 260.5 8.83008C260.47 8.90008 260.45 8.97005 260.43 9.05005C260.43 9.05005 260.43 9.05006 260.43 9.06006C260.38 9.24006 260.35 9.43006 260.34 9.62006C260.34 9.73006 260.34 9.85008 260.34 9.96008C260.63 15.9301 279.15 21.98 302.3 23.6C325.45 25.21 344.63 21.79 345.74 15.92L345.79 15.5801C345.8 15.4001 345.79 15.22 345.78 15.04C345.78 15.02 345.78 15.0101 345.78 14.9901C345.75 14.7901 345.7 14.5901 345.64 14.3901H345.65C345.65 14.3901 350.64 32.1501 349.5 72.0101C348.2 117.22 335.85 159.08 301.59 172.11C298.86 173.15 294.29 173.52 291.87 173.35C289.46 173.18 284.98 172.18 282.42 170.78C250.3 153.12 243.88 109.94 248.86 64.9901H248.84Z" fill="#FAF6EA" stroke="black" stroke-miterlimit="10"/>
<path d="M260.43 9.05001C260.43 9.05001 260.43 9.05 260.43 9.04C260.45 8.97 260.48 8.89003 260.5 8.82003C260.56 8.66003 260.61 8.56002 260.63 8.50002C260.63 8.48002 260.64 8.47004 260.65 8.45004C261.47 6.79004 263.81 5.35004 267.3 4.20004C275.08 1.64004 288.59 0.520042 303.82 1.58004C319.04 2.64004 332.25 5.62001 339.6 9.23001C342.91 10.85 345.03 12.61 345.61 14.37C345.68 14.57 345.73 14.7701 345.75 14.9701C345.75 14.9901 345.75 15 345.75 15.02C345.77 15.2 345.78 15.38 345.76 15.56L345.71 15.9C344.6 21.7701 325.42 25.2 302.27 23.58C279.12 21.97 260.6 15.91 260.31 9.94003C260.31 9.83003 260.31 9.71 260.31 9.6C260.32 9.41 260.35 9.23 260.4 9.04L260.43 9.05001Z" fill="#FAF6EA" stroke="black" stroke-miterlimit="10"/>
<path d="M254.84 72.8101C255.42 67.6301 256.05 62.9001 256.71 58.6001C256.71 58.6501 256.71 58.7101 256.71 58.7601C257.05 63.9601 275.71 69.4102 298.99 71.0302C322.27 72.6502 341.5 69.8401 342.56 64.7401L342.58 64.5801C342.64 68.9401 342.61 73.7001 342.46 78.9201C341.33 118.28 330.58 154.74 300.74 166.08C298.36 166.98 294.38 167.3 292.28 167.16C290.18 167.01 286.28 166.15 284.05 164.92C256.08 149.54 250.49 111.95 254.83 72.8101H254.84Z" fill="#FAF6EA" stroke="black" stroke-miterlimit="10"/>
<path d="M299.66 60.9399C299.66 60.9399 299.66 60.9699 299.66 60.9799C299.68 61.1399 299.69 61.3 299.68 61.45L299.66 61.58C299.66 61.36 299.66 61.1399 299.66 60.9199V60.9399Z" fill="#FAF6EA" stroke="black" stroke-miterlimit="10"/>
<path d="M298.98 71.0299C275.71 69.4099 257.05 63.9598 256.7 58.7598C256.7 58.7098 256.7 58.6498 256.7 58.5998C256.73 58.3798 256.77 58.1598 256.8 57.9398C256.82 57.8898 256.84 57.8299 256.86 57.7799C256.92 57.6399 256.97 57.5498 256.99 57.4998C256.99 57.4898 257 57.4699 257.01 57.4599C257.82 56.0199 260.15 54.7898 263.65 53.8198C271.44 51.6598 285 50.8098 300.31 51.8798C315.6 52.9498 328.9 55.6698 336.33 58.8798C339.67 60.3298 341.81 61.8698 342.42 63.4198C342.49 63.5898 342.54 63.7598 342.57 63.9298C342.57 64.1498 342.57 64.3699 342.57 64.5899L342.55 64.7498C341.49 69.8498 322.25 72.6598 298.98 71.0398V71.0299Z" fill="#FAF6EA" stroke="black" stroke-miterlimit="10"/>
<path d="M174.82 188.53C182.03 181.91 192.13 179.25 201.91 178.9C211.69 178.55 221.41 180.26 231.15 181.25C240.89 182.24 250.96 182.47 260.21 179.29C265.83 177.36 270.98 174.22 276.63 172.39C281.56 170.79 286.81 170.22 291.97 170.73C296.57 171.18 301.44 172.73 304.08 176.51C305.95 179.19 306.44 182.65 306 185.89C304.9 194.14 298.26 200.84 290.63 204.19C283.01 207.54 274.48 208.08 266.16 208.26C257.84 208.44 249.39 208.31 241.34 210.45C228.44 213.88 217.83 222.75 207.07 230.65C196.31 238.55 184.08 245.94 170.74 245.61" fill="#FAF6EA"/>
<path d="M174.82 188.53C182.03 181.91 192.13 179.25 201.91 178.9C211.69 178.55 221.41 180.26 231.15 181.25C240.89 182.24 250.96 182.47 260.21 179.29C265.83 177.36 270.98 174.22 276.63 172.39C281.56 170.79 286.81 170.22 291.97 170.73C296.57 171.18 301.44 172.73 304.08 176.51C305.95 179.19 306.44 182.65 306 185.89C304.9 194.14 298.26 200.84 290.63 204.19C283.01 207.54 274.48 208.08 266.16 208.26C257.84 208.44 249.39 208.31 241.34 210.45C228.44 213.88 217.83 222.75 207.07 230.65C196.31 238.55 184.08 245.94 170.74 245.61" stroke="black" stroke-miterlimit="10"/>
<path d="M284.64 192.4C285.14 192.8 285.69 193.15 286.27 193.41C289.1 194.69 292.61 195.1 295.65 194.44C301.47 193.17 305.02 184.62 301.82 179.6C299.81 176.43 295.13 175.08 291.59 175.05C287.09 175.01 282.17 176.78 281.02 181.52C280.09 185.34 281.56 189.93 284.64 192.4Z" stroke="black" stroke-miterlimit="10"/>
<path d="M251.22 228.45C246.62 235.53 244.54 244.22 245.45 252.61" stroke="black" stroke-miterlimit="10"/>
<path d="M237.2 242.76C237.2 245.05 237.2 247.33 237.2 249.62" stroke="black" stroke-miterlimit="10"/>
<path d="M225.85 228.84C223.98 236.41 223.68 244.37 224.98 252.06" stroke="black" stroke-miterlimit="10"/>
<path d="M160.81 241.62C157.76 241.2 154.56 240.42 152.4 238.23C151.59 237.41 150.96 236.42 150.34 235.44C149.84 234.65 149.35 233.87 148.85 233.08C147.46 230.88 146.05 228.64 145.26 226.15" stroke="black" stroke-miterlimit="10"/>
<path d="M159.79 231.52C158.43 230.01 157.51 228.1 157.16 226.1" stroke="black" stroke-miterlimit="10"/>
<path d="M222.24 215.94C216.35 214.64 210.59 212.75 205.07 210.33" stroke="black" stroke-miterlimit="10"/>
<path d="M200.73 219.75C199.58 220.02 198.47 219.28 197.52 218.57C195.48 217.06 193.44 215.55 191.4 214.04C188.34 211.78 185.21 209.44 183.13 206.25" stroke="black" stroke-miterlimit="10"/>
<path d="M250.08 181.58C244.64 174.47 239.24 167.33 233.89 160.15" stroke="black" stroke-miterlimit="10"/>
<path d="M229.97 172.48C229.78 170.92 228.89 169.55 228.06 168.22C224.89 163.15 222.2 157.38 222.79 151.44" stroke="black" stroke-miterlimit="10"/>
<path d="M312.46 205.92C309.9 205.58 307.36 204.93 305.03 203.8C302.61 202.63 300.58 200.78 298.34 199.3" stroke="black" stroke-miterlimit="10"/>
<path d="M259.81 236.87C258.24 239.53 256.62 242.43 256.92 245.51" stroke="black" stroke-miterlimit="10"/>
<path d="M256.59 208.75C257.05 213.37 256.7 218.07 255.57 222.57" stroke="black" stroke-miterlimit="10"/>
<path d="M132.36 198.4C131.9 200.28 131.13 202.06 130.56 203.91C128.66 210.04 129.01 216.61 129.38 223.02" stroke="black" stroke-miterlimit="10"/>
<path d="M131.33 237.32C132.33 245.91 134.27 254.39 137.1 262.57" stroke="black" stroke-miterlimit="10"/>
<path d="M116.43 201.13C114.1 219.51 116.04 238.42 122.06 255.94" stroke="black" stroke-miterlimit="10"/>
<path d="M93.99 242.06C83.83 239.44 73.19 238.71 62.78 239.92" stroke="black" stroke-miterlimit="10"/>
<path d="M264.73 183.22C264.73 186.54 264.73 189.86 264.73 193.18" stroke="black" stroke-miterlimit="10"/>
<path d="M258.7 185.6C258.49 187.7 258.61 189.82 259.04 191.89" stroke="black" stroke-miterlimit="10"/>
<path d="M251.31 183.65C251.31 184.73 251.31 185.81 251.31 186.9" stroke="black" stroke-miterlimit="10"/>
<path d="M321.53 198.68C317.82 198.63 315.39 195.67 314.22 192.42C312.63 187.98 313.62 183.56 313.98 179.03" stroke="black" stroke-miterlimit="10"/>
<path d="M407.44 123.825H408.342L408.928 130.493L412.279 123.825H413.334L414.283 130.493L417.295 123.825H418.315L414.623 131.63H413.615L412.654 124.938L409.303 131.63H408.272L407.44 123.825ZM417.482 129.11C417.482 127.118 418.69 125.513 420.553 125.513C422.393 125.513 423.389 126.884 423.107 128.536L423.049 128.888H418.397C418.385 128.981 418.385 129.063 418.385 129.157C418.385 130.329 419.029 130.95 420.225 130.95C421.068 130.95 421.666 130.528 421.971 129.778H422.955C422.486 131.056 421.525 131.735 420.213 131.735C418.525 131.735 417.482 130.739 417.482 129.11ZM420.6 126.274C419.545 126.274 418.76 127.001 418.49 128.185H422.24C422.404 127.048 421.701 126.274 420.6 126.274ZM425.252 123.228H426.143L424.666 131.63H423.775L425.252 123.228ZM426.26 129.11C426.26 127.024 427.596 125.489 429.365 125.489C430.889 125.489 431.838 126.45 431.838 127.903H430.936C430.936 126.907 430.338 126.31 429.295 126.31C428.088 126.31 427.174 127.528 427.174 129.122C427.174 130.282 427.807 130.938 428.943 130.938C429.799 130.938 430.49 130.364 430.69 129.521H431.627C431.311 130.892 430.256 131.747 428.885 131.747C427.279 131.747 426.26 130.716 426.26 129.11ZM432.811 129.11C432.811 127.048 434.158 125.489 435.916 125.489C437.475 125.489 438.506 126.521 438.506 128.114C438.506 130.177 437.158 131.747 435.4 131.747C433.842 131.747 432.811 130.704 432.811 129.11ZM437.604 128.103C437.604 126.978 436.959 126.31 435.857 126.31C434.709 126.31 433.725 127.458 433.725 129.11C433.725 130.271 434.369 130.927 435.471 130.927C436.607 130.927 437.604 129.755 437.604 128.103ZM440.182 125.63H441.072L440.932 126.438C441.459 125.829 442.221 125.501 442.889 125.501C443.768 125.501 444.436 126.005 444.623 126.837C445.139 126.005 446.018 125.513 446.815 125.513C447.986 125.513 448.818 126.45 448.561 127.892L447.881 131.63H447.002L447.658 128.009C447.881 126.813 447.342 126.356 446.51 126.356C445.678 126.356 444.834 127.001 444.635 127.88V127.903L443.943 131.63H443.065L443.732 128.009C443.943 126.849 443.44 126.321 442.514 126.321C441.693 126.321 440.943 126.849 440.709 127.681L440.018 131.63H439.127L440.182 125.63ZM449.451 129.11C449.451 127.118 450.658 125.513 452.522 125.513C454.361 125.513 455.357 126.884 455.076 128.536L455.018 128.888H450.365C450.354 128.981 450.354 129.063 450.354 129.157C450.354 130.329 450.998 130.95 452.193 130.95C453.037 130.95 453.635 130.528 453.94 129.778H454.924C454.455 131.056 453.494 131.735 452.182 131.735C450.494 131.735 449.451 130.739 449.451 129.11ZM452.568 126.274C451.514 126.274 450.729 127.001 450.459 128.185H454.209C454.373 127.048 453.67 126.274 452.568 126.274ZM456.857 129.802H456.143L457.115 123.825H457.994L456.857 129.802ZM456.705 131.63H455.65L455.826 130.634H456.869L456.705 131.63Z" fill="#415E43"/>
</svg>
